<?xml version="1.0" encoding="UTF-8"?>
<svg version="1.1" xmlns="http://www.w3.org/2000/svg" width="473" height="471">
<path d="M0 0 C41.79259985 -0.78418786 83.16850086 9.74583567 119.5390625 30.12109375 C120.19471191 30.48428711 120.85036133 30.84748047 121.52587891 31.22167969 C136.57042716 39.62282477 150.65810732 49.88834083 163.09375 61.81640625 C165.52825942 64.18608276 165.52825942 64.18608276 168.359375 66.30078125 C169.07867187 66.90148437 169.79796875 67.5021875 170.5390625 68.12109375 C170.5390625 68.78109375 170.5390625 69.44109375 170.5390625 70.12109375 C171.5290625 70.45109375 172.5190625 70.78109375 173.5390625 71.12109375 C173.5390625 71.78109375 173.5390625 72.44109375 173.5390625 73.12109375 C174.1990625 73.12109375 174.8590625 73.12109375 175.5390625 73.12109375 C178.12143939 75.54110562 180.28689833 78.39727217 182.5390625 81.12109375 C182.97041504 81.63623535 183.40176758 82.15137695 183.84619141 82.68212891 C217.97244976 123.56936205 239.22067153 174.52563456 240.5390625 228.12109375 C240.57902344 229.33667969 240.61898438 230.55226562 240.66015625 231.8046875 C241.02182632 252.59007901 238.29869948 272.91774016 233.5390625 293.12109375 C233.32797852 294.01892578 233.11689453 294.91675781 232.89941406 295.84179688 C224.08992491 332.08422527 204.64108798 370.32442573 177.359375 396.3359375 C175.50117332 398.15825116 173.8392672 400.06782723 172.1640625 402.05859375 C153.01839011 424.16626478 124.47079955 442.16638218 97.5390625 453.12109375 C96.83539551 453.41193848 96.13172852 453.7027832 95.40673828 454.00244141 C81.72627316 459.61129265 67.96148603 463.88256204 53.5390625 467.12109375 C52.21382568 467.43868652 52.21382568 467.43868652 50.86181641 467.76269531 C21.07590508 474.69680712 -14.76671158 474.22354332 -44.4609375 467.12109375 C-45.399375 466.91210449 -46.3378125 466.70311523 -47.3046875 466.48779297 C-108.28081355 452.81119212 -161.78593368 414.89496808 -195.19775391 362.17041016 C-229.5881347 306.37743443 -239.2222179 241.76886458 -224.4609375 178.12109375 C-212.63770805 129.9259673 -183.62626905 83.76063884 -144.4609375 53.12109375 C-143.44128906 52.30769531 -142.42164063 51.49429688 -141.37109375 50.65625 C-100.79923788 18.56089222 -51.54203111 1.80338935 0 0 Z " fill="#BC0F10" transform="translate(232.4609375,-0.12109375)"/>
<path d="M0 0 C3.41955263 1.52542411 5.25558607 3.27642371 7.55859375 6.26953125 C9.55648642 8.66808532 11.7862099 10.79876301 14 13 C14.98962771 13.9935298 15.97853346 14.98777914 16.96679688 15.98266602 C19.8548732 18.88853057 22.74598693 21.79135189 25.63818359 24.69311523 C26.88029003 25.94027088 28.12150031 27.18831968 29.36181641 28.43725586 C31.16591384 30.25352701 32.97326131 32.06650959 34.78125 33.87890625 C35.33035034 34.43316788 35.87945068 34.9874295 36.44519043 35.55848694 C39.48521583 38.5989505 42.60761934 41.34669766 46 44 C47.15906655 45.26118695 48.28628296 46.5526071 49.375 47.875 C52.15272121 51.13580316 55.076132 53.84925828 58.375 56.56640625 C60.90780013 58.80087175 62.87713717 61.37435387 65 64 C67.85893487 67.01347189 70.86711484 69.77856317 74 72.5 C82.68367347 80.05102041 82.68367347 80.05102041 84 84 C84.66 84 85.32 84 86 84 C86.226875 83.443125 86.45375 82.88625 86.6875 82.3125 C89.07625164 78.1037471 92.75922999 75.18479983 96.4375 72.125 C99.49982656 69.54095438 102.04212897 66.74154098 104.59765625 63.6640625 C107.27782237 60.48369825 110.14254656 57.65957957 113.4375 55.125 C116.15866136 52.86842716 118.26868968 50.43782796 120.52734375 47.734375 C123.26115914 44.51470913 126.16264497 41.64895015 129.5 39.0625 C132.42320625 36.65085484 134.60595036 33.9327108 137 31 C139.55612636 28.31279024 142.1199811 25.90251536 145 23.5625 C148.07903881 20.93248768 150.45078401 18.1374966 153 15 C155.58121879 12.28641102 158.21899839 9.79100254 161.125 7.4375 C164.00309059 5.21971809 164.00309059 5.21971809 165.5625 2.6875 C167 1 167 1 169.3125 0.3125 C172.91654724 1.23446557 174.15893778 3.09077398 176.375 5.98046875 C178.85135072 9.05804885 181.7031873 11.73327335 184.52587891 14.49047852 C186.12404584 16.05349659 187.71830919 17.62042786 189.3125 19.1875 C189.86228516 19.72052734 190.41207031 20.25355469 190.97851562 20.80273438 C192.35715678 22.16424956 193.68339727 23.57840502 195 25 C195 25.66 195 26.32 195 27 C195.58265625 27.25523437 196.1653125 27.51046875 196.765625 27.7734375 C199.21388223 29.11741087 200.81743248 30.61810296 202.75 32.625 C203.67039062 33.57246094 203.67039062 33.57246094 204.609375 34.5390625 C205.06828125 35.02117187 205.5271875 35.50328125 206 36 C201.64304101 41.21063922 197.0641384 46.07416581 192.25048828 50.86303711 C191.49858719 51.61508423 190.7466861 52.36713135 189.97200012 53.14196777 C187.507136 55.60613996 185.03875789 58.06675951 182.5703125 60.52734375 C180.85231025 62.24347927 179.13452988 63.95983694 177.41696167 65.67640686 C172.91143139 70.17813208 168.40290529 74.67684517 163.89373779 79.17492676 C159.28671199 83.77169509 154.68254087 88.37132077 150.078125 92.97070312 C141.05486698 101.98325932 132.02853652 110.99273182 123 120 C124.43805641 123.03628564 125.65997748 124.79297567 128.3125 126.875 C131.69519692 129.65539478 134.24937463 132.59791073 137 136 C138.65455702 137.67868896 140.32328021 139.34344746 142 141 C142.98998701 141.99317179 143.97887372 142.98744127 144.96679688 143.98266602 C147.8548732 146.88853057 150.74598693 149.79135189 153.63818359 152.69311523 C154.88029003 153.94027088 156.12150031 155.18831968 157.36181641 156.43725586 C159.16591384 158.25352701 160.97326131 160.06650959 162.78125 161.87890625 C163.33035034 162.43316788 163.87945068 162.9874295 164.44519043 163.55848694 C167.48521583 166.5989505 170.60761934 169.34669766 174 172 C175.15906655 173.26118695 176.28628296 174.5526071 177.375 175.875 C180.15272121 179.13580316 183.076132 181.84925828 186.375 184.56640625 C188.90780013 186.80087175 190.87713717 189.37435387 193 192 C196.30864732 195.48278665 199.81011232 198.56465556 203.546875 201.5703125 C205 203 205 203 206 206 C204.54782324 207.50596108 203.08807139 209.00462104 201.625 210.5 C200.81289063 211.3353125 200.00078125 212.170625 199.1640625 213.03125 C197 215 197 215 195 215 C194.7525 215.5775 194.505 216.155 194.25 216.75 C192.81700012 219.32939979 191.21575324 221.06121592 189 223 C188.34 223 187.68 223 187 223 C186.7525 223.5775 186.505 224.155 186.25 224.75 C184.81700012 227.32939979 183.21575324 229.06121592 181 231 C180.34 231 179.68 231 179 231 C178.74476563 231.58265625 178.48953125 232.1653125 178.2265625 232.765625 C176.88258913 235.21388223 175.38189704 236.81743248 173.375 238.75 C172.74335938 239.36359375 172.11171875 239.9771875 171.4609375 240.609375 C170.97882813 241.06828125 170.49671875 241.5271875 170 242 C166.29666833 240.49030849 164.32236056 238.3336357 161.75 235.3125 C158.38075853 231.46272737 154.92089051 228.0932158 151.01074219 224.80932617 C149.09923113 223.08929115 147.47590188 221.32325357 145.8203125 219.359375 C141.75438855 214.6509507 137.40837603 210.26118622 133 205.875 C132.23171875 205.10285156 131.4634375 204.33070313 130.671875 203.53515625 C126.73574266 199.60571801 122.76257752 195.81936982 118.45898438 192.29345703 C116.01866725 190.13000319 114.08461287 187.50153544 112 185 C110.89279246 184.02116435 109.76652565 183.06358775 108.625 182.125 C105.23057639 179.32091093 102.47524547 176.17844395 99.640625 172.8203125 C97.91427567 170.79973897 97.91427567 170.79973897 95.125 168.75 C92.70443318 166.75659203 92.68097711 165.91847332 92 163 C90.18398635 161.79996657 90.18398635 161.79996657 88 161 C86.66326296 160.34018464 85.32940867 159.67445891 84 159 C73.45314882 169.52351072 62.90914619 180.04986898 52.36854649 190.57964134 C47.47451077 195.46851655 42.57954029 200.35644897 37.68237305 205.2421875 C32.95985308 209.95369157 28.23993482 214.66778727 23.5216198 219.38350296 C21.7174946 221.18577482 19.91248687 222.98716367 18.10659981 224.78767014 C15.58510957 227.30194334 13.06672351 229.81928584 10.54907227 232.33740234 C9.79525772 233.08762161 9.04144318 233.83784088 8.26478577 234.61079407 C7.24040405 235.63723778 7.24040405 235.63723778 6.19532776 236.68441772 C5.30072767 237.57763513 5.30072767 237.57763513 4.38805485 238.48889732 C2.90082502 239.9685875 2.90082502 239.9685875 2 242 C-5.72179397 238.55838594 -11.87985927 231.56428299 -17 225 C-17 224.34 -17 223.68 -17 223 C-17.53625 222.773125 -18.0725 222.54625 -18.625 222.3125 C-25.83322171 218.32900906 -31.47798401 211.78302398 -36 205 C-31.99917996 200.08470681 -27.93956896 195.57589978 -23 191.5625 C-19.92096119 188.93248768 -17.54921599 186.1374966 -15 183 C-12.44387364 180.31279024 -9.8800189 177.90251536 -7 175.5625 C-3.92096119 172.93248768 -1.54921599 170.1374966 1 167 C3.53610192 164.33384157 6.07465879 161.93963757 8.9375 159.625 C11.84410589 157.25499828 14.1673667 154.57462617 16.5625 151.69921875 C19.27956325 148.48747279 22.17647692 145.63823039 25.5 143.0625 C28.42320625 140.65085484 30.60595036 137.9327108 33 135 C36.46233177 131.36011275 40.13555468 128.19236787 44 125 C45.85801239 123.56308045 45.85801239 123.56308045 47 122 C47 120.68 47 119.36 47 118 C46.2678125 117.76925781 45.535625 117.53851563 44.78125 117.30078125 C41.47116127 115.75266391 39.86128573 113.96034785 37.5 111.1875 C36.71882813 110.28902344 35.93765625 109.39054687 35.1328125 108.46484375 C34.42898437 107.65144531 33.72515625 106.83804688 33 106 C30.32949954 103.20233285 27.59581289 100.65222309 24.625 98.1875 C22.11971045 96.06938512 19.9519638 93.87606213 17.8359375 91.37109375 C13.76298832 86.6607005 9.41270868 82.26549706 5 77.875 C4.23171875 77.10285156 3.4634375 76.33070313 2.671875 75.53515625 C-1.26425734 71.60571801 -5.23742248 67.81936982 -9.54101562 64.29345703 C-11.98133275 62.13000319 -13.91538713 59.50153544 -16 57 C-17.74489319 55.40941709 -19.53856103 53.89496657 -21.3515625 52.3828125 C-23.3659249 50.69303931 -25.2480491 48.96218501 -27 47 C-27 46.34 -27 45.68 -27 45 C-27.99 44.67 -28.98 44.34 -30 44 C-31.60546875 42.37109375 -31.60546875 42.37109375 -33.1875 40.4375 C-33.98220703 39.47650391 -33.98220703 39.47650391 -34.79296875 38.49609375 C-35.19128906 38.00238281 -35.58960937 37.50867188 -36 37 C-32.48839116 32.81261764 -28.86610885 28.86610885 -25 25 C-24.03499262 23.85978179 -23.07706764 22.71354475 -22.125 21.5625 C-19.53778927 18.4964225 -16.73529382 15.95128853 -13.65234375 13.39453125 C-11.28956954 11.40041684 -9.15823548 9.21219137 -7 7 C-5.73049808 5.72783665 -4.45960735 4.45705804 -3.1875 3.1875 C-2.58292969 2.58292969 -1.97835937 1.97835937 -1.35546875 1.35546875 C-0.68451172 0.68451172 -0.68451172 0.68451172 0 0 Z " fill="#FDFDFD" transform="translate(152,115)"/>
<path d="M0 0 C11.88739514 -0.21109692 23.69558673 1.02031541 35.51953125 2.125 C32.03106303 4.27003684 29.27547247 4.35854662 25.22265625 4.3203125 C23.41474609 4.31064453 23.41474609 4.31064453 21.5703125 4.30078125 C19.68892578 4.27564453 19.68892578 4.27564453 17.76953125 4.25 C16.49980469 4.24097656 15.23007813 4.23195313 13.921875 4.22265625 C10.78757032 4.19909005 7.65364584 4.16618832 4.51953125 4.125 C4.51953125 4.785 4.51953125 5.445 4.51953125 6.125 C-0.76046875 6.125 -6.04046875 6.125 -11.48046875 6.125 C-11.48046875 7.445 -11.48046875 8.765 -11.48046875 10.125 C-19.40046875 10.62 -19.40046875 10.62 -27.48046875 11.125 C-27.48046875 9.475 -27.48046875 7.825 -27.48046875 6.125 C-28.17914063 6.14820313 -28.8778125 6.17140625 -29.59765625 6.1953125 C-30.50773438 6.21335937 -31.4178125 6.23140625 -32.35546875 6.25 C-33.26039063 6.27320313 -34.1653125 6.29640625 -35.09765625 6.3203125 C-37.48046875 6.125 -37.48046875 6.125 -39.48046875 4.125 C-26.28090389 1.97466105 -13.37711774 0.48043521 0 0 Z " fill="#B81111" transform="translate(232.48046875,-0.125)"/>
<path d="M0 0 C10.23 0 20.46 0 31 0 C31 0.66 31 1.32 31 2 C25.72 2 20.44 2 15 2 C15 3.98 15 5.96 15 8 C28.2 8 41.4 8 55 8 C55 8.33 55 8.66 55 9 C48.53035336 9.07738728 42.06082998 9.12914618 35.59082031 9.16479492 C33.39936872 9.17968859 31.20794586 9.20001031 29.01660156 9.22631836 C14.69913547 9.3936398 1.08800171 8.62448702 -13 6 C-9.79619983 3.86413322 -8.98060033 3.76867825 -5.3125 3.875 C-4.10013672 3.90207031 -4.10013672 3.90207031 -2.86328125 3.9296875 C-1.94095703 3.96449219 -1.94095703 3.96449219 -1 4 C-0.67 2.68 -0.34 1.36 0 0 Z " fill="#AF1B1A" transform="translate(206,462)"/>
<path d="M0 0 C3.00855337 4.51283005 3.49443312 9.40817903 4.5 14.6875 C4.83100708 16.42362549 4.83100708 16.42362549 5.16870117 18.19482422 C9.97970185 44.54513184 11.00663185 72.56859221 6 99 C5.67 99 5.34 99 5 99 C4.97082766 95.12501596 4.95314327 91.25006042 4.9375 87.375 C4.92912109 86.28058594 4.92074219 85.18617188 4.91210938 84.05859375 C4.90888672 82.99511719 4.90566406 81.93164062 4.90234375 80.8359375 C4.89710693 79.86188965 4.89187012 78.8878418 4.88647461 77.88427734 C5.0059651 74.8484479 5.48941196 71.9923524 6 69 C6.99654452 51.39047212 6.49127489 32.87355376 1.6640625 15.83203125 C0.44506545 10.63336737 0.24886248 5.3205082 0 0 Z " fill="#A23234" transform="translate(464,175)"/>
<path d="M0 0 C0.33 0 0.66 0 1 0 C1 13.2 1 26.4 1 40 C1.66 40 2.32 40 3 40 C3.57393778 45.01661311 4.14346196 50.03370078 4.70898438 55.05126953 C4.90179554 56.75648368 5.09579104 58.46156437 5.29101562 60.16650391 C5.57216337 62.62367783 5.84898354 65.08130753 6.125 67.5390625 C6.21249512 68.29555084 6.29999023 69.05203918 6.39013672 69.83145142 C6.84380804 73.91192603 7.0910426 77.88601245 7 82 C4.59026084 77.56520139 3.88292 73.11642232 3 68.1875 C2.82629883 67.21844727 2.65259766 66.24939453 2.47363281 65.25097656 C-1.24788131 43.54330786 -1.80946 21.90739074 0 0 Z " fill="#A64042" transform="translate(2,212)"/>
<path d="M0 0 C2.375 0.1875 2.375 0.1875 5 1 C5.28875 1.78375 5.5775 2.5675 5.875 3.375 C6.84161211 6.30006523 6.84161211 6.30006523 10.0625 8 C14.7815893 9.76719034 18.613036 7.98670274 23 6 C24.33836262 5.34348822 25.67332026 4.67981106 27 4 C27 3.34 27 2.68 27 2 C28.32 2.33 29.64 2.66 31 3 C30.14535156 3.84304688 29.29070312 4.68609375 28.41015625 5.5546875 C27.29413953 6.66132593 26.17826128 7.76810402 25.0625 8.875 C24.49853516 9.43058594 23.93457031 9.98617188 23.35351562 10.55859375 C20.30139972 13.4921571 20.30139972 13.4921571 18 17 C10.26809325 13.54606433 4.5137613 6.98904975 0 0 Z " fill="#F9EAE9" transform="translate(136,340)"/>
<path d="M0 0 C4.44612981 0.79042308 6.13534038 4.07470262 8.8125 7.5 C10.12840635 8.85053546 11.45328414 10.19306167 12.8125 11.5 C12.1525 11.83 11.4925 12.16 10.8125 12.5 C10.8125 11.84 10.8125 11.18 10.8125 10.5 C9.905 10.231875 8.9975 9.96375 8.0625 9.6875 C5.09778037 8.60423706 3.1955246 7.51640543 0.8125 5.5 C0.214375 5.809375 -0.38375 6.11875 -1 6.4375 C-3.1875 7.5 -3.1875 7.5 -6.1875 8.5 C-6.620625 9.428125 -6.620625 9.428125 -7.0625 10.375 C-9.01346169 14.06014985 -12.36711256 15.22653752 -16.1875 16.5 C-16.1875 17.82 -16.1875 19.14 -16.1875 20.5 C-17.5075 20.5 -18.8275 20.5 -20.1875 20.5 C-18.67494324 16.64985552 -16.38519213 15.02840773 -13.1875 12.5 C-11.50017723 10.51739574 -9.83383943 8.5167658 -8.1875 6.5 C-6.53966394 4.81471312 -4.87747323 3.14302953 -3.1875 1.5 C-2.1875 0.5 -2.1875 0.5 0 0 Z " fill="#EDCDC3" transform="translate(321.1875,115.5)"/>
<path d="M0 0 C0.66 0.99 1.32 1.98 2 3 C0.625 6.6875 0.625 6.6875 -1 10 C-1.66 10 -2.32 10 -3 10 C-3.04898437 10.68707031 -3.09796875 11.37414062 -3.1484375 12.08203125 C-3.22320312 12.98308594 -3.29796875 13.88414062 -3.375 14.8125 C-3.44460937 15.70582031 -3.51421875 16.59914062 -3.5859375 17.51953125 C-4 20 -4 20 -6 23 C-7.5528069 27.27021898 -8.77553362 31.62690578 -10 36 C-10.66 36 -11.32 36 -12 36 C-12.06058594 36.67546875 -12.12117187 37.3509375 -12.18359375 38.046875 C-12.26738281 38.93890625 -12.35117188 39.8309375 -12.4375 40.75 C-12.51871094 41.63171875 -12.59992187 42.5134375 -12.68359375 43.421875 C-12.96238465 45.69350452 -13.38790577 47.79851823 -14 50 C-14.66 50 -15.32 50 -16 50 C-15.40400384 44.05358375 -14.2318514 38.58953425 -12.5 32.875 C-12.24589355 32.0284082 -11.99178711 31.18181641 -11.72998047 30.30957031 C-8.50905353 19.94132517 -4.28036027 9.96749225 0 0 Z " fill="#A43033" transform="translate(23,136)"/>
<path d="M0 0 C0.99 0 1.98 0 3 0 C1.82633684 2.88080957 0.64907259 4.34257199 -1.625 6.5625 C-4.34893236 8.7909084 -4.34893236 8.7909084 -4 12 C-2.46404976 13.86224572 -2.46404976 13.86224572 -0.5 15.625 C0.68062146 16.73534638 1.85105004 17.85691203 3 19 C3 19.33 3 19.66 3 20 C-1.62 20 -6.24 20 -11 20 C-10.34 18.68 -9.68 17.36 -9 16 C-7.35 16 -5.7 16 -4 16 C-4 15.34 -4 14.68 -4 14 C-4.66 14 -5.32 14 -6 14 C-6 13.34 -6 12.68 -6 12 C-7.32 12 -8.64 12 -10 12 C-10.33 11.01 -10.66 10.02 -11 9 C-10.21625 8.938125 -9.4325 8.87625 -8.625 8.8125 C-7.325625 8.4103125 -7.325625 8.4103125 -6 8 C-5.29788106 6.34795544 -4.63028587 4.68076231 -4 3 C-1.875 2.1875 -1.875 2.1875 0 2 C0 1.34 0 0.68 0 0 Z " fill="#A72626" transform="translate(122,310)"/>
<path d="M0 0 C0 0.99 0 1.98 0 3 C-1.33333333 4.33333333 -2.66666667 5.66666667 -4 7 C-4.6488002 8.19572269 -5.27269088 9.40519749 -5.875 10.625 C-8 14 -8 14 -11.25 15.4375 C-12.1575 15.623125 -13.065 15.80875 -14 16 C-13.67 16.99 -13.34 17.98 -13 19 C-13.66 19 -14.32 19 -15 19 C-15.33 20.65 -15.66 22.3 -16 24 C-16.66 24 -17.32 24 -18 24 C-17.67 25.65 -17.34 27.3 -17 29 C-20.47899158 27.60840337 -21.48052501 26.36748512 -23 23 C-21.77083333 21.77083333 -20.54166667 20.54166667 -19.3125 19.3125 C-18.58160156 18.5803125 -17.85070312 17.848125 -17.09765625 17.09375 C-15.4913054 15.4903905 -13.87319527 13.89880447 -12.25 12.3125 C-9.96179799 10.04722121 -9.96179799 10.04722121 -8.0625 7.5 C-5.62313584 4.54319496 -2.99658244 2.38364512 0 0 Z " fill="#F5DCD9" transform="translate(139,128)"/>
<path d="M0 0 C1.1725131 0.95117134 2.33787015 1.91117009 3.5 2.875 C4.47453125 3.67550781 4.47453125 3.67550781 5.46875 4.4921875 C5.9740625 4.98976562 6.479375 5.48734375 7 6 C7 6.66 7 7.32 7 8 C7.58265625 8.25523437 8.1653125 8.51046875 8.765625 8.7734375 C11.21388223 10.11741087 12.81743248 11.61810296 14.75 13.625 C15.36359375 14.25664062 15.9771875 14.88828125 16.609375 15.5390625 C17.06828125 16.02117187 17.5271875 16.50328125 18 17 C17.04578192 18.14926266 16.08647955 19.29430541 15.125 20.4375 C14.59132813 21.07558594 14.05765625 21.71367187 13.5078125 22.37109375 C12 24 12 24 10 25 C10.309375 23.39125 10.309375 23.39125 10.625 21.75 C10.99467161 18.05328386 11.08531566 16.91944192 9 14 C7.54166642 12.37485532 7.54166642 12.37485532 6 11 C5.34 10.34 4.68 9.68 4 9 C4.33 8.01 4.66 7.02 5 6 C3.68 5.67 2.36 5.34 1 5 C0.67 3.35 0.34 1.7 0 0 Z " fill="#F9E8E6" transform="translate(340,134)"/>
<path d="M0 0 C1.32 0 2.64 0 4 0 C4.33 1.98 4.66 3.96 5 6 C5.66 6 6.32 6 7 6 C7 5.34 7 4.68 7 4 C7.66 4 8.32 4 9 4 C9 3.34 9 2.68 9 2 C9.99 2.33 10.98 2.66 12 3 C11.0479279 4.00596297 10.08812654 5.00461563 9.125 6 C8.59132812 6.556875 8.05765625 7.11375 7.5078125 7.6875 C6 9 6 9 4 9 C3.773125 9.5775 3.54625 10.155 3.3125 10.75 C1.66961977 13.5663661 -0.39533227 15.08077114 -3 17 C-3 16.01 -3 15.02 -3 14 C-2.34 14 -1.68 14 -1 14 C-1 13.34 -1 12.68 -1 12 C-0.34 12 0.32 12 1 12 C1.33 10.68 1.66 9.36 2 8 C0.35 8 -1.3 8 -3 8 C-3.33 8.66 -3.66 9.32 -4 10 C-4 8.02 -4 6.04 -4 4 C-3.34 4 -2.68 4 -2 4 C-2 3.34 -2 2.68 -2 2 C-1.34 2 -0.68 2 0 2 C0 1.34 0 0.68 0 0 Z " fill="#AF1E1C" transform="translate(129,124)"/>
<path d="M0 0 C1.65 0.33 3.3 0.66 5 1 C5 1.66 5 2.32 5 3 C6.65 3.33 8.3 3.66 10 4 C9.67 4.99 9.34 5.98 9 7 C9.99 7.33 10.98 7.66 12 8 C11.01 8.495 11.01 8.495 10 9 C7.375 8.0625 7.375 8.0625 5 7 C5 7.99 5 8.98 5 10 C6.32 10.33 7.64 10.66 9 11 C9 12.32 9 13.64 9 15 C4.71 15 0.42 15 -4 15 C-2.50260417 13.27473958 -1.00520833 11.54947917 0.4921875 9.82421875 C2.1640447 7.86501788 2.1640447 7.86501788 4 5 C2.68 3.35 1.36 1.7 0 0 Z " fill="#AD2326" transform="translate(353,315)"/>
<path d="M0 0 C-3.46675574 1.87620301 -5.78503173 2.21940401 -9.75 2.125 C-10.73484375 2.10695313 -11.7196875 2.08890625 -12.734375 2.0703125 C-13.85585937 2.03550781 -13.85585937 2.03550781 -15 2 C-15 1.34 -15 0.68 -15 0 C-28.2 0 -41.4 0 -55 0 C-55 -0.33 -55 -0.66 -55 -1 C-36.42506176 -2.36688113 -18.53907381 -1.73206405 0 0 Z " fill="#A94A4C" transform="translate(268,2)"/>
<path d="M0 0 C0.66 0.33 1.32 0.66 2 1 C-0.52560412 6.23160854 -3.16414085 9.7760939 -8 13 C-9.75116176 15.06653686 -11.42091598 17.18391503 -13.0859375 19.3203125 C-15 21 -15 21 -17.7265625 21.2421875 C-18.47679687 21.16226562 -19.22703125 21.08234375 -20 21 C-15.76183463 15.93376232 -11.32591037 11.19961931 -6.625 6.5625 C-5.98433594 5.92634766 -5.34367188 5.29019531 -4.68359375 4.63476562 C-3.12469121 3.08749668 -1.56348584 1.54263508 0 0 Z " fill="#B32E34" transform="translate(230,279)"/>
<path d="M0 0 C1.65 0 3.3 0 5 0 C5 0.66 5 1.32 5 2 C7.64 2 10.28 2 13 2 C12.67 3.32 12.34 4.64 12 6 C10.68 5.34 9.36 4.68 8 4 C5.03 6.97 2.06 9.94 -1 13 C-3.11433068 8.77133864 -3.26958336 8.23194454 -2 4 C-0.9375 1.6875 -0.9375 1.6875 0 0 Z " fill="#B90F14" transform="translate(144,112)"/>
<path d="M0 0 C1.65 0 3.3 0 5 0 C5 1.32 5 2.64 5 4 C6.32 4 7.64 4 9 4 C9 4.66 9 5.32 9 6 C12.3 6 15.6 6 19 6 C19 7.32 19 8.64 19 10 C18.360625 10.268125 17.72125 10.53625 17.0625 10.8125 C14.66868314 11.88667752 14.66868314 11.88667752 14 15 C12.03580523 13.03580523 10.07182948 11.07140276 8.109375 9.10546875 C6.87514262 7.87352198 5.63725604 6.64518006 4.390625 5.42578125 C1.10284582 2.20569164 1.10284582 2.20569164 0 0 Z " fill="#B01A19" transform="translate(343,136)"/>
<path d="M0 0 C1.2989839 0.90626784 2.58893167 1.82549537 3.875 2.75 C4.59429687 3.26046875 5.31359375 3.7709375 6.0546875 4.296875 C8.10462017 6.09159517 8.80160267 7.60320534 10 10 C10.99 10.33 11.98 10.66 13 11 C13 11.66 13 12.32 13 13 C13.66 13 14.32 13 15 13 C16.38938077 14.96147874 17.7260411 16.96166576 19 19 C18.01 19.33 17.02 19.66 16 20 C15.67 18.68 15.34 17.36 15 16 C13.741875 15.814375 12.48375 15.62875 11.1875 15.4375 C10.47980469 15.33308594 9.77210938 15.22867188 9.04296875 15.12109375 C6.7974658 14.86095201 6.7974658 14.86095201 4 16 C4 15.34 4 14.68 4 14 C4.66 14 5.32 14 6 14 C6.33 12.02 6.66 10.04 7 8 C5.35 7.67 3.7 7.34 2 7 C2.33 6.01 2.66 5.02 3 4 C2.01 4 1.02 4 0 4 C0 2.68 0 1.36 0 0 Z " fill="#B01315" transform="translate(393,60)"/>
<path d="M0 0 C4.88049925 3.9419417 9.0580583 8.11950075 13 13 C16.40212299 11.38617243 19.10324519 9.41396234 22 7 C22 8.32 22 9.64 22 11 C21.34 11 20.68 11 20 11 C19.87625 11.804375 19.7525 12.60875 19.625 13.4375 C19.315625 14.7059375 19.315625 14.7059375 19 16 C18.34 16.33 17.68 16.66 17 17 C17 16.34 17 15.68 17 15 C14.69 15 12.38 15 10 15 C10 14.34 10 13.68 10 13 C9.34 13 8.68 13 8 13 C7.938125 12.38125 7.87625 11.7625 7.8125 11.125 C7.171081 8.72238859 7.171081 8.72238859 4.4375 7.75 C3.633125 7.5025 2.82875 7.255 2 7 C2 5.68 2 4.36 2 3 C0.35 2.67 -1.3 2.34 -3 2 C-2.01 1.34 -1.02 0.68 0 0 Z " fill="#A42322" transform="translate(307,343)"/>
<path d="M0 0 C0.66 0.33 1.32 0.66 2 1 C1.01 2.485 1.01 2.485 0 4 C-0.66 4 -1.32 4 -2 4 C-2 4.66 -2 5.32 -2 6 C-2.99 6 -3.98 6 -5 6 C-4.67 7.98 -4.34 9.96 -4 12 C-5.65 12 -7.3 12 -9 12 C-9 12.66 -9 13.32 -9 14 C-9.66 14 -10.32 14 -11 14 C-11 13.34 -11 12.68 -11 12 C-13.31 12.33 -15.62 12.66 -18 13 C-14.45015323 9.20372859 -10.77019369 6.32081929 -6.3125 3.625 C-5.44141602 3.07392578 -5.44141602 3.07392578 -4.55273438 2.51171875 C-3.07487544 1.60620981 -1.54044153 0.79438868 0 0 Z " fill="#AD2828" transform="translate(118,32)"/>
<path d="M0 0 C1.32 0.33 2.64 0.66 4 1 C-2.48071905 9.93703219 -8.79988905 18.54535368 -17 26 C-17.33 24.68 -17.66 23.36 -18 22 C-17.34 22 -16.68 22 -16 22 C-16 21.34 -16 20.68 -16 20 C-15.01 20 -14.02 20 -13 20 C-13 19.34 -13 18.68 -13 18 C-12.34 18 -11.68 18 -11 18 C-11 17.34 -11 16.68 -11 16 C-10.34 16 -9.68 16 -9 16 C-9 13.36 -9 10.72 -9 8 C-7.35 8 -5.7 8 -4 8 C-4 7.34 -4 6.68 -4 6 C-3.34 6 -2.68 6 -2 6 C-2 5.34 -2 4.68 -2 4 C-1.34 4 -0.68 4 0 4 C0 2.68 0 1.36 0 0 Z " fill="#AF1C1D" transform="translate(425,372)"/>
<path d="M0 0 C3.89181438 3.16775589 7.44893166 6.44893166 11 10 C13.64036781 12.36399286 16.31440838 14.68759232 19 17 C17.1875 17.625 17.1875 17.625 15 18 C14.01 17.34 13.02 16.68 12 16 C12 15.34 12 14.68 12 14 C10.02 14 8.04 14 6 14 C6 12.02 6 10.04 6 8 C5.01 8 4.02 8 3 8 C1.3125 6.5 1.3125 6.5 0 5 C-0.33 5.66 -0.66 6.32 -1 7 C-2 4 -2 4 -1.0625 1.8125 C-0.5365625 0.9153125 -0.5365625 0.9153125 0 0 Z " fill="#AB2020" transform="translate(135,340)"/>
<path d="M0 0 C0.66 0 1.32 0 2 0 C0.64478577 3.06142519 -0.84449955 5.04900687 -3.30078125 7.3125 C-3.94853516 7.91320312 -4.59628906 8.51390625 -5.26367188 9.1328125 C-5.93978516 9.74898438 -6.61589844 10.36515625 -7.3125 11 C-7.97701172 11.61617188 -8.64152344 12.23234375 -9.32617188 12.8671875 C-19.23311762 22 -19.23311762 22 -22 22 C-22 21.34 -22 20.68 -22 20 C-21.34 20 -20.68 20 -20 20 C-20 19.34 -20 18.68 -20 18 C-19.34 18 -18.68 18 -18 18 C-18 17.34 -18 16.68 -18 16 C-17.01 16 -16.02 16 -15 16 C-15 15.34 -15 14.68 -15 14 C-14.34 14 -13.68 14 -13 14 C-12.8453125 12.576875 -12.8453125 12.576875 -12.6875 11.125 C-12 8 -12 8 -9 6 C-7.68 6 -6.36 6 -5 6 C-5 5.34 -5 4.68 -5 4 C-4.34 4 -3.68 4 -3 4 C-3 3.34 -3 2.68 -3 2 C-2.01 2 -1.02 2 0 2 C0 1.34 0 0.68 0 0 Z " fill="#A6282B" transform="translate(405,398)"/>
<path d="M0 0 C0.99 0 1.98 0 3 0 C3 0.66 3 1.32 3 2 C3.99 2 4.98 2 6 2 C6 2.66 6 3.32 6 4 C6.99 4 7.98 4 9 4 C11 6 11 6 11 10 C11.66 10 12.32 10 13 10 C13 10.66 13 11.32 13 12 C13.66 12 14.32 12 15 12 C15.33 13.32 15.66 14.64 16 16 C16.99 16 17.98 16 19 16 C19.33 17.32 19.66 18.64 20 20 C15.85774255 18.36699466 13.06522156 15.36074465 10 12.25 C9.47921875 11.73695313 8.9584375 11.22390625 8.421875 10.6953125 C5.10931765 7.36602506 2.48298958 3.98710826 0 0 Z " fill="#AA3234" transform="translate(59,390)"/>
<path d="M0 0 C0.66 0.33 1.32 0.66 2 1 C0.58226538 4.54433654 -0.67612238 5.33806119 -4 7 C-5.26804566 9.0335948 -5.26804566 9.0335948 -6 11 C-6.99 11 -7.98 11 -9 11 C-9.04125 11.9075 -9.0825 12.815 -9.125 13.75 C-10 17 -10 17 -12.8125 19.4375 C-16 21 -16 21 -20 20 C-13.4 13.4 -6.8 6.8 0 0 Z " fill="#AF3034" transform="translate(358,151)"/>
<path d="M0 0 C-1 2 -1 2 -3 3 C-2.01 3.33 -1.02 3.66 0 4 C-0.66 4 -1.32 4 -2 4 C-2 4.66 -2 5.32 -2 6 C-6.18920767 6.08214133 -9.90619819 5.81876036 -14 5 C-14.99 5.495 -14.99 5.495 -16 6 C-16 5.34 -16 4.68 -16 4 C-17.32 3.67 -18.64 3.34 -20 3 C-17.41932437 2.30081695 -14.83627153 1.61538951 -12.25 0.9375 C-11.15558594 0.63875977 -11.15558594 0.63875977 -10.0390625 0.33398438 C-6.28968956 -0.63744407 -3.69725762 -1.15449387 0 0 Z " fill="#B01A1B" transform="translate(192,6)"/>
<path d="M0 0 C1.32 0.66 2.64 1.32 4 2 C3.46274105 5.37705625 2.88935377 8.696686 2 12 C0.68 12 -0.64 12 -2 12 C-2 11.34 -2 10.68 -2 10 C-2.66 10 -3.32 10 -4 10 C-4 9.34 -4 8.68 -4 8 C-4.66 8 -5.32 8 -6 8 C-6 6.68 -6 5.36 -6 4 C-4.02 4 -2.04 4 0 4 C0 2.68 0 1.36 0 0 Z " fill="#B51915" transform="translate(131,336)"/>
<path d="M0 0 C-0.99 0 -1.98 0 -3 0 C-2.67 1.32 -2.34 2.64 -2 4 C-3.93232821 4.86580287 -5.87107194 5.71729941 -7.8125 6.5625 C-8.89144531 7.03816406 -9.97039062 7.51382812 -11.08203125 8.00390625 C-14 9 -14 9 -17 8 C-16.01 7.67 -15.02 7.34 -14 7 C-13.773125 6.030625 -13.54625 5.06125 -13.3125 4.0625 C-12 1 -12 1 -10.23828125 0.125 C-6.44937258 -0.88350804 -3.79213846 -1.16484971 0 0 Z " fill="#B11E21" transform="translate(341,445)"/>
<path d="M0 0 C0 0.66 0 1.32 0 2 C-3 4 -3 4 -6 4 C-6.1546875 5.0828125 -6.1546875 5.0828125 -6.3125 6.1875 C-7.26573642 10.08710352 -8.55094554 13.01838246 -11.9375 15.3125 C-14 16 -14 16 -18 16 C-16.48744324 12.14985552 -14.19769213 10.52840773 -11 8 C-10.10193353 6.97815311 -9.22703218 5.93553553 -8.375 4.875 C-5.6640463 1.59331921 -4.3453794 0 0 0 Z " fill="#F6EEE9" transform="translate(143,296)"/>
<path d="M0 0 C0.33 0 0.66 0 1 0 C1.57393778 5.01661311 2.14346196 10.03370078 2.70898438 15.05126953 C2.90179554 16.75648368 3.09579104 18.46156437 3.29101562 20.16650391 C3.57216337 22.62367783 3.84898354 25.08130753 4.125 27.5390625 C4.21249512 28.29555084 4.29999023 29.05203918 4.39013672 29.83145142 C4.84380804 33.91192603 5.0910426 37.88601245 5 42 C-1.41150028 29.84765846 -0.23247065 13.40580754 0 0 Z " fill="#AA282C" transform="translate(4,252)"/>
<path d="M0 0 C0.66 0 1.32 0 2 0 C-0.12444599 7.81699809 -3.0163673 15.17894518 -6.1875 22.625 C-6.88262695 24.27435547 -6.88262695 24.27435547 -7.59179688 25.95703125 C-8.72330507 28.63998883 -9.85943902 31.32088144 -11 34 C-13 31 -13 31 -13 28 C-12.01 28 -11.02 28 -10 28 C-9.773125 26.9275 -9.54625 25.855 -9.3125 24.75 C-8.1059491 19.85385141 -6.13431744 15.34627023 -4.12109375 10.734375 C-3.19535531 8.47647636 -2.50421849 6.37945802 -2 4 C-1.34 4 -0.68 4 0 4 C0 2.68 0 1.36 0 0 Z " fill="#A22F31" transform="translate(460,306)"/>
<path d="M0 0 C4.18465569 2.09232784 6.66498791 4.73304081 9.57421875 8.28125 C11.26298786 10.31702646 13.09428334 12.16758014 15 14 C14.34 14.66 13.68 15.32 13 16 C12.67 14.68 12.34 13.36 12 12 C10.02 12 8.04 12 6 12 C6.33 10.68 6.66 9.36 7 8 C5.02 8.33 3.04 8.66 1 9 C-1 6 -1 6 -0.625 2.8125 C-0.41875 1.884375 -0.2125 0.95625 0 0 Z " fill="#F7EEE8" transform="translate(343,306)"/>
<path d="M0 0 C1.6415049 3.2830098 0.51888624 6.42545033 0 10 C-0.99 10.33 -1.98 10.66 -3 11 C-3.72904086 12.64034193 -4.38655243 14.31301918 -5 16 C-6.5 18.8125 -6.5 18.8125 -8 21 C-8.66 21 -9.32 21 -10 21 C-10 21.66 -10 22.32 -10 23 C-10.66 23 -11.32 23 -12 23 C-10.46688715 17.48431813 -7.81247556 12.97965148 -4.875 8.125 C-4.40707031 7.34125 -3.93914063 6.5575 -3.45703125 5.75 C-2.30981892 3.83017528 -1.1573993 1.91369439 0 0 Z " fill="#AD2D31" transform="translate(38,109)"/>
<path d="M0 0 C4.80443583 3.38717183 7.89879744 7.55460352 11.3125 12.25 C11.86228516 12.99507812 12.41207031 13.74015625 12.97851562 14.5078125 C14.32496192 16.33429617 15.66519468 18.16500133 17 20 C13.2734375 21.1328125 13.2734375 21.1328125 10.8125 19.9375 C8.44400785 17.40566356 8.30163069 15.3933453 8 12 C7.01 11.67 6.02 11.34 5 11 C4.67 9.02 4.34 7.04 4 5 C3.01 4.67 2.02 4.34 1 4 C0.3125 1.9375 0.3125 1.9375 0 0 Z " fill="#AD1E23" transform="translate(412,79)"/>
<path d="M0 0 C3.55941054 1.3183002 5.37916613 3.47238064 7.69921875 6.41015625 C9.16836599 8.25957774 9.16836599 8.25957774 11.75 10.75 C14 13 14 13 15 15 C11 15 11 15 9.0625 13.125 C8.381875 12.42375 7.70125 11.7225 7 11 C4.36777038 9.74563813 4.36777038 9.74563813 2 9 C2.66 8.34 3.32 7.68 4 7 C3.01 6.34 2.02 5.68 1 5 C1 4.34 1 3.68 1 3 C0.01 2.67 -0.98 2.34 -2 2 C-1.34 1.34 -0.68 0.68 0 0 Z " fill="#F7E6E3" transform="translate(152,115)"/>
<path d="M0 0 C4.29 0 8.58 0 13 0 C7.375 6.75 7.375 6.75 4 9 C4 8.01 4 7.02 4 6 C4.66 6 5.32 6 6 6 C6 5.34 6 4.68 6 4 C4.02 4 2.04 4 0 4 C0 2.68 0 1.36 0 0 Z " fill="#AD1F1B" transform="translate(112,142)"/>
<path d="M0 0 C2.475 0.495 2.475 0.495 5 1 C5.33 1.99 5.66 2.98 6 4 C7.93618425 4.67156616 7.93618425 4.67156616 10 5 C10.66 5.33 11.32 5.66 12 6 C12 7.32 12 8.64 12 10 C12.66 10 13.32 10 14 10 C13.67 11.32 13.34 12.64 13 14 C12.29875 13.278125 11.5975 12.55625 10.875 11.8125 C8.94944149 9.87048372 6.95648989 8.13372787 4.8125 6.4375 C2.32166319 4.27877477 1.12078446 3.02611804 0 0 Z " fill="#F5E8DE" transform="translate(171,206)"/>
<path d="M0 0 C1.65 0 3.3 0 5 0 C5 0.66 5 1.32 5 2 C5.94875 2.144375 6.8975 2.28875 7.875 2.4375 C11 3 11 3 13 4 C13 4.66 13 5.32 13 6 C13.99 6.33 14.98 6.66 16 7 C9.04339229 6.42978625 2.68572695 4.98697306 -4 3 C-2.68 2.67 -1.36 2.34 0 2 C0 1.34 0 0.68 0 0 Z " fill="#AC2B2D" transform="translate(176,460)"/>
<path d="M0 0 C0.33 0.66 0.66 1.32 1 2 C0.0625 4.125 0.0625 4.125 -1 6 C-0.34 6 0.32 6 1 6 C1 6.66 1 7.32 1 8 C-0.98 8 -2.96 8 -5 8 C-5 8.66 -5 9.32 -5 10 C-5.66 10 -6.32 10 -7 10 C-7 10.66 -7 11.32 -7 12 C-8.98 12 -10.96 12 -13 12 C-8.87675353 7.74790208 -4.48717034 3.86364295 0 0 Z " fill="#AD2D2F" transform="translate(89,52)"/>
<path d="M0 0 C-4.29 4.29 -8.58 8.58 -13 13 C-13.33 11.68 -13.66 10.36 -14 9 C-13.34 9 -12.68 9 -12 9 C-12 8.34 -12 7.68 -12 7 C-11.34 7 -10.68 7 -10 7 C-9.855625 6.38125 -9.71125 5.7625 -9.5625 5.125 C-8.86527519 2.4910396 -8.49776578 1.3261224 -6.1875 -0.1875 C-4 -1 -4 -1 0 0 Z " fill="#F9EBE2" transform="translate(221,289)"/>
<path d="M0 0 C2.475 0.495 2.475 0.495 5 1 C5 1.66 5 2.32 5 3 C5.99 3 6.98 3 8 3 C8 4.32 8 5.64 8 7 C9.32 7 10.64 7 12 7 C12 8.32 12 9.64 12 11 C12.99 11 13.98 11 15 11 C15.12375 11.639375 15.2475 12.27875 15.375 12.9375 C15.58125 13.618125 15.7875 14.29875 16 15 C16.66 15.33 17.32 15.66 18 16 C15 16 15 16 13.2824707 14.63891602 C12.66976318 14.01686279 12.05705566 13.39480957 11.42578125 12.75390625 C10.75869141 12.08166016 10.09160156 11.40941406 9.40429688 10.71679688 C8.71400391 10.00587891 8.02371094 9.29496094 7.3125 8.5625 C6.2596582 7.50192383 6.2596582 7.50192383 5.18554688 6.41992188 C0 1.15374453 0 1.15374453 0 0 Z " fill="#A93D3D" transform="translate(305,267)"/>
<path d="M0 0 C2.475 0.495 2.475 0.495 5 1 C5 1.66 5 2.32 5 3 C5.99 3 6.98 3 8 3 C8 4.32 8 5.64 8 7 C9.32 7 10.64 7 12 7 C12 8.32 12 9.64 12 11 C12.99 11 13.98 11 15 11 C15.12375 11.639375 15.2475 12.27875 15.375 12.9375 C15.58125 13.618125 15.7875 14.29875 16 15 C16.66 15.33 17.32 15.66 18 16 C15 16 15 16 13.2824707 14.63891602 C12.66976318 14.01686279 12.05705566 13.39480957 11.42578125 12.75390625 C10.75869141 12.08166016 10.09160156 11.40941406 9.40429688 10.71679688 C8.71400391 10.00587891 8.02371094 9.29496094 7.3125 8.5625 C6.2596582 7.50192383 6.2596582 7.50192383 5.18554688 6.41992188 C0 1.15374453 0 1.15374453 0 0 Z " fill="#A93D3D" transform="translate(177,139)"/>
<path d="M0 0 C6.82423338 1.23416987 13.39367844 2.8915995 20 5 C20 5.33 20 5.66 20 6 C15.38 6 10.76 6 6 6 C6 5.34 6 4.68 6 4 C5.01 4 4.02 4 3 4 C3 3.34 3 2.68 3 2 C2.01 2 1.02 2 0 2 C0 1.34 0 0.68 0 0 Z " fill="#A8292B" transform="translate(295,8)"/>
<path d="M0 0 C1.9375 0.3125 1.9375 0.3125 4 1 C4.33 1.99 4.66 2.98 5 4 C6.98 4 8.96 4 11 4 C11.33 2.68 11.66 1.36 12 0 C13.32 0 14.64 0 16 0 C14.44396229 3.81936528 12.04395069 6.26044438 9 9 C7 9 7 9 4.5 6.75 C2.43045772 4.4735035 1.14250707 2.80433554 0 0 Z " fill="#A12F2E" transform="translate(229,190)"/>
<path d="M0 0 C3.71860179 1.53873177 4.35633541 2.47511388 7 6 C2.38 6 -2.24 6 -7 6 C-6.34 4.68 -5.68 3.36 -5 2 C-3.35 2 -1.7 2 0 2 C0 1.34 0 0.68 0 0 Z " fill="#B31409" transform="translate(118,324)"/>
<path d="M0 0 C0.66 0.66 1.32 1.32 2 2 C1.67 2.99 1.34 3.98 1 5 C1.66 5 2.32 5 3 5 C3.33 4.34 3.66 3.68 4 3 C4 4.32 4 5.64 4 7 C4.99 7 5.98 7 7 7 C6.48792856 10.75519057 5.7824918 13.66688525 4 17 C3.1344953 14.73291675 2.28240685 12.46224921 1.4375 10.1875 C1.19064453 9.54490234 0.94378906 8.90230469 0.68945312 8.24023438 C-1.11328125 3.33984375 -1.11328125 3.33984375 0 0 Z " fill="#AF272B" transform="translate(13,305)"/>
<path d="M0 0 C0.33 0.66 0.66 1.32 1 2 C2.65 2 4.3 2 6 2 C6 2.66 6 3.32 6 4 C6.66 4 7.32 4 8 4 C8 4.66 8 5.32 8 6 C8.66 6 9.32 6 10 6 C10 6.66 10 7.32 10 8 C10.639375 8.226875 11.27875 8.45375 11.9375 8.6875 C14 10 14 10 14.75 12.625 C14.87375 13.800625 14.87375 13.800625 15 15 C12.5625 13.75 12.5625 13.75 10 12 C9.63837971 10.67405895 9.30271961 9.34061543 9 8 C7.18398635 6.79996657 7.18398635 6.79996657 5 6 C2.49323043 4.78459657 0.33579943 3.55719962 -2 2 C-1.34 1.34 -0.68 0.68 0 0 Z " fill="#FAEBE9" transform="translate(235,270)"/>
<path d="M0 0 C0.12375 0.556875 0.2475 1.11375 0.375 1.6875 C1.05976855 4.22114364 1.99133763 6.57921032 3 9 C3.66 9 4.32 9 5 9 C5.33 10.65 5.66 12.3 6 14 C-1.24705882 8.07058824 -1.24705882 8.07058824 -4 5 C-4 4.34 -4 3.68 -4 3 C-4.99 2.67 -5.98 2.34 -7 2 C-7 1.67 -7 1.34 -7 1 C-3.535 0.505 -3.535 0.505 0 0 Z " fill="#F2DAD6" transform="translate(129,157)"/>
<path d="M0 0 C8.60308032 0.44953032 16.65932321 1.86101998 25 4 C25 4.33 25 4.66 25 5 C20.71 5 16.42 5 12 5 C12 4.34 12 3.68 12 3 C9.69 3 7.38 3 5 3 C5 2.34 5 1.68 5 1 C3.35 1 1.7 1 0 1 C0 0.67 0 0.34 0 0 Z " fill="#A12A2B" transform="translate(269,3)"/>
<path d="M0 0 C2.125 0.375 2.125 0.375 4 1 C1.11658466 5.21422242 -1.04303419 6.76075855 -6 8 C-6 9.32 -6 10.64 -6 12 C-7.98 12.33 -9.96 12.66 -12 13 C-8.83704791 9.11408743 -5.596885 5.49967189 -2 2 C-1.34 1.34 -0.68 0.68 0 0 Z " fill="#F1D8D5" transform="translate(153,282)"/>
<path d="M0 0 C3.50783414 2.87004611 6.84631589 5.73756816 10 9 C10.5775 9.5775 11.155 10.155 11.75 10.75 C12.1625 11.1625 12.575 11.575 13 12 C12.67 12.99 12.34 13.98 12 15 C11.01 14.67 10.02 14.34 9 14 C9 13.01 9 12.02 9 11 C8.34 11 7.68 11 7 11 C7 10.34 7 9.68 7 9 C6.34 9 5.68 9 5 9 C5 8.34 5 7.68 5 7 C4.34 7 3.68 7 3 7 C2.67 5.68 2.34 4.36 2 3 C1.01 3 0.02 3 -1 3 C-0.67 2.01 -0.34 1.02 0 0 Z " fill="#A53C3A" transform="translate(187,223)"/>
<path d="M0 0 C3.78145709 1.2604857 4.52164768 2.9020596 7 6 C8.83115007 7.6101492 10.70192396 9.14922097 12.609375 10.66796875 C13.06828125 11.10753906 13.5271875 11.54710937 14 12 C14 12.66 14 13.32 14 14 C13.01 14 12.02 14 11 14 C11 13.34 11 12.68 11 12 C10.34 12 9.68 12 9 12 C9 11.34 9 10.68 9 10 C8.34 10 7.68 10 7 10 C7 9.34 7 8.68 7 8 C6.34 8 5.68 8 5 8 C5 7.34 5 6.68 5 6 C3.68 6 2.36 6 1 6 C0.67 4.02 0.34 2.04 0 0 Z " fill="#A52E2F" transform="translate(119,156)"/>
<path d="M0 0 C2.125 0.375 2.125 0.375 4 1 C1.11658466 5.21422242 -1.04303419 6.76075855 -6 8 C-6 9.32 -6 10.64 -6 12 C-7.98 12.33 -9.96 12.66 -12 13 C-8.83704791 9.11408743 -5.596885 5.49967189 -2 2 C-1.34 1.34 -0.68 0.68 0 0 Z " fill="#F1D8D5" transform="translate(281,154)"/>
<path d="M0 0 C1.33998047 0.06960938 1.33998047 0.06960938 2.70703125 0.140625 C3.60808594 0.17671875 4.50914062 0.2128125 5.4375 0.25 C6.46810547 0.31960938 6.46810547 0.31960938 7.51953125 0.390625 C7.51953125 1.710625 7.51953125 3.030625 7.51953125 4.390625 C3.22953125 4.390625 -1.06046875 4.390625 -5.48046875 4.390625 C-2.48046875 0.390625 -2.48046875 0.390625 0 0 Z " fill="#AE1B17" transform="translate(354.48046875,325.609375)"/>
<path d="M0 0 C3.85754273 1.57159148 6.14362932 4.01077487 9 7 C10.26818853 8.27347265 11.53910193 9.54423659 12.8125 10.8125 C13.875 11.875 14.9375 12.9375 16 14 C15.01 14.495 15.01 14.495 14 15 C11.875 14.0625 11.875 14.0625 10 13 C10 12.01 10 11.02 10 10 C9.01 10 8.02 10 7 10 C7 9.34 7 8.68 7 8 C6.34 8 5.68 8 5 8 C5 7.34 5 6.68 5 6 C4.34 6 3.68 6 3 6 C3 5.34 3 4.68 3 4 C2.34 4 1.68 4 1 4 C0.67 2.68 0.34 1.36 0 0 Z " fill="#A33838" transform="translate(269,306)"/>
<path d="M0 0 C3.85754273 1.57159148 6.14362932 4.01077487 9 7 C10.26818853 8.27347265 11.53910193 9.54423659 12.8125 10.8125 C13.875 11.875 14.9375 12.9375 16 14 C15.01 14.495 15.01 14.495 14 15 C11.875 14.0625 11.875 14.0625 10 13 C10 12.01 10 11.02 10 10 C9.01 10 8.02 10 7 10 C7 9.34 7 8.68 7 8 C6.34 8 5.68 8 5 8 C5 7.34 5 6.68 5 6 C4.34 6 3.68 6 3 6 C3 5.34 3 4.68 3 4 C2.34 4 1.68 4 1 4 C0.67 2.68 0.34 1.36 0 0 Z " fill="#A33838" transform="translate(141,178)"/>
<path d="M0 0 C1.46184058 0.22860058 2.91955419 0.48370392 4.375 0.75 C5.59316406 0.95882813 5.59316406 0.95882813 6.8359375 1.171875 C9.62244393 2.23819154 9.77061334 3.38176649 11 6 C13.32548007 6.69356423 15.65880445 7.36149212 18 8 C18.33 8.99 18.66 9.98 19 11 C18.01 11.495 18.01 11.495 17 12 C15.32006836 11.22729492 15.32006836 11.22729492 13.33984375 9.98046875 C12.62892578 9.53509766 11.91800781 9.08972656 11.18554688 8.63085938 C10.44369141 8.15455078 9.70183594 7.67824219 8.9375 7.1875 C8.19177734 6.72279297 7.44605469 6.25808594 6.67773438 5.77929688 C1.135299 2.27059801 1.135299 2.27059801 0 0 Z " fill="#AC3D3E" transform="translate(98,426)"/>
<path d="M0 0 C1.32 0 2.64 0 4 0 C4.33 1.32 4.66 2.64 5 4 C5.99 4 6.98 4 8 4 C8 5.32 8 6.64 8 8 C9.32 8 10.64 8 12 8 C12 9.32 12 10.64 12 12 C12.66 12.33 13.32 12.66 14 13 C11 13 11 13 9.31640625 11.390625 C8.73761719 10.68421875 8.15882813 9.9778125 7.5625 9.25 C5.61625132 6.92027436 3.71188017 4.71188017 1.5625 2.5625 C1.046875 2.046875 0.53125 1.53125 0 1 C0 0.67 0 0.34 0 0 Z " fill="#A52827" transform="translate(325,286)"/>
<path d="M0 0 C1.32 0 2.64 0 4 0 C4.33 1.32 4.66 2.64 5 4 C5.99 4 6.98 4 8 4 C8 5.32 8 6.64 8 8 C9.32 8 10.64 8 12 8 C12 9.32 12 10.64 12 12 C12.66 12.33 13.32 12.66 14 13 C11 13 11 13 9.31640625 11.390625 C8.73761719 10.68421875 8.15882813 9.9778125 7.5625 9.25 C5.61625132 6.92027436 3.71188017 4.71188017 1.5625 2.5625 C1.046875 2.046875 0.53125 1.53125 0 1 C0 0.67 0 0.34 0 0 Z " fill="#A52827" transform="translate(197,158)"/>
<path d="M0 0 C-0.7265625 1.96484375 -0.7265625 1.96484375 -2 4 C-4.0234375 4.50390625 -4.0234375 4.50390625 -6.375 4.5625 C-10.12834888 4.8042616 -12.24359837 5.24359837 -15 8 C-16.32 7.34 -17.64 6.68 -19 6 C-16.2120519 4.80303299 -13.42025583 3.61716986 -10.625 2.4375 C-9.8309375 2.09525391 -9.036875 1.75300781 -8.21875 1.40039062 C-7.45820313 1.08134766 -6.69765625 0.76230469 -5.9140625 0.43359375 C-4.8614624 -0.01415405 -4.8614624 -0.01415405 -3.78759766 -0.47094727 C-2 -1 -2 -1 0 0 Z " fill="#AA3737" transform="translate(156,16)"/>
<path d="M0 0 C0.33 0.99 0.66 1.98 1 3 C0.01 3.33 -0.98 3.66 -2 4 C-3.22520264 7.00847418 -3.22520264 7.00847418 -4 10 C-4.99 10 -5.98 10 -7 10 C-7.33 11.32 -7.66 12.64 -8 14 C-9.32 14 -10.64 14 -12 14 C-10.48744324 10.14985552 -8.19769213 8.52840773 -5 6 C-3.24207758 4.06055298 -1.63102321 2.05042917 0 0 Z " fill="#EDCCC5" transform="translate(185,250)"/>
<path d="M0 0 C2.64 0 5.28 0 8 0 C4.33519874 2.08611764 0.42609743 3.07730239 -3.625 4.125 C-4.305625 4.30675781 -4.98625 4.48851562 -5.6875 4.67578125 C-10.72550517 6 -10.72550517 6 -13 6 C-12.67 4.68 -12.34 3.36 -12 2 C-8.04 2 -4.08 2 0 2 C0 1.34 0 0.68 0 0 Z " fill="#A4343B" transform="translate(301,460)"/>
<path d="M0 0 C0.33 0.66 0.66 1.32 1 2 C1.66 2.33 2.32 2.66 3 3 C2.21625 3.2475 1.4325 3.495 0.625 3.75 C-2.36732074 5.17491464 -2.86662695 5.97767187 -4 9 C-4.33 9.66 -4.66 10.32 -5 11 C-8.0625 11.625 -8.0625 11.625 -11 12 C-7.49102731 7.81576108 -3.91939465 3.80411834 0 0 Z " fill="#A94542" transform="translate(182,327)"/>
<path d="M0 0 C0.33 0.66 0.66 1.32 1 2 C1.66 2.33 2.32 2.66 3 3 C2.21625 3.2475 1.4325 3.495 0.625 3.75 C-2.36732074 5.17491464 -2.86662695 5.97767187 -4 9 C-4.33 9.66 -4.66 10.32 -5 11 C-8.0625 11.625 -8.0625 11.625 -11 12 C-7.49102731 7.81576108 -3.91939465 3.80411834 0 0 Z " fill="#A94542" transform="translate(310,199)"/>
<path d="M0 0 C0.99 0.66 1.98 1.32 3 2 C1.625 3.5 1.625 3.5 0 5 C-0.66 5 -1.32 5 -2 5 C-2.226875 5.5775 -2.45375 6.155 -2.6875 6.75 C-4.33038023 9.5663661 -6.39533227 11.08077114 -9 13 C-8.67 11.35 -8.34 9.7 -8 8 C-6.68 7.67 -5.36 7.34 -4 7 C-4.33 5.68 -4.66 4.36 -5 3 C-4.01 3 -3.02 3 -2 3 C-1.34 2.01 -0.68 1.02 0 0 Z " fill="#F6E8E2" transform="translate(341,333)"/>
<path d="M0 0 C0 3.13751221 -0.35179805 4.39757586 -2 7 C-2.99 7.33 -3.98 7.66 -5 8 C-5 8.66 -5 9.32 -5 10 C-4.01 10.33 -3.02 10.66 -2 11 C-1.6278958 12.32303717 -1.29369827 13.65737935 -1 15 C-0.34 15.33 0.32 15.66 1 16 C-2 16 -2 16 -3.60546875 14.6875 C-4.12753906 14.130625 -4.64960938 13.57375 -5.1875 13 C-5.71730469 12.443125 -6.24710937 11.88625 -6.79296875 11.3125 C-7.39044922 10.6628125 -7.39044922 10.6628125 -8 10 C-6.34908222 5.70761377 -3.26245434 3.1206085 0 0 Z " fill="#AB494B" transform="translate(282,227)"/>
<path d="M0 0 C0.33 0.99 0.66 1.98 1 3 C0.01 3.33 -0.98 3.66 -2 4 C-3.22520264 7.00847418 -3.22520264 7.00847418 -4 10 C-4.99 10 -5.98 10 -7 10 C-6.67 11.65 -6.34 13.3 -6 15 C-7.65 14.67 -9.3 14.34 -11 14 C-9.42219077 10.28954753 -7.09296752 7.70093616 -4.375 4.75 C-3.55773438 3.85796875 -2.74046875 2.9659375 -1.8984375 2.046875 C-1.27195312 1.37140625 -0.64546875 0.6959375 0 0 Z " fill="#AA3B3D" transform="translate(67,72)"/>
<path d="M0 0 C0.99 0.33 1.98 0.66 3 1 C-1.455 4.465 -1.455 4.465 -6 8 C-7.32 7.34 -8.64 6.68 -10 6 C-9.01 6 -8.02 6 -7 6 C-7 5.34 -7 4.68 -7 4 C-7.99 4 -8.98 4 -10 4 C-10 3.34 -10 2.68 -10 2 C-6.7 2 -3.4 2 0 2 C0 1.34 0 0.68 0 0 Z " fill="#AB272A" transform="translate(375,424)"/>
<path d="M0 0 C1.6396875 0.2475 1.6396875 0.2475 3.3125 0.5 C6.87525873 1.06718184 6.87525873 1.06718184 10 1 C11.09658936 4.28976808 10.79953138 5.71303767 10 9 C8.8944811 8.06409496 7.79064547 7.12620142 6.6875 6.1875 C6.07261719 5.66542969 5.45773437 5.14335937 4.82421875 4.60546875 C3.14575321 3.12827531 1.56117966 1.59960869 0 0 Z " fill="#F8E8E5" transform="translate(273,309)"/>
<path d="M0 0 C0.66 0 1.32 0 2 0 C2 0.66 2 1.32 2 2 C3.1446875 2.12375 3.1446875 2.12375 4.3125 2.25 C7 3 7 3 8.8125 4.875 C10 7 10 7 10 10 C10.66 10 11.32 10 12 10 C11.67 10.99 11.34 11.98 11 13 C7.09674955 9.21155103 3.3553356 5.289295 0 1 C0 0.67 0 0.34 0 0 Z " fill="#A82829" transform="translate(283,244)"/>
<path d="M0 0 C0.99 0.33 1.98 0.66 3 1 C1.02 2.98 -0.96 4.96 -3 7 C-1.79618552 9.49361571 -0.54571278 11.68143083 1 14 C-0.32 14 -1.64 14 -3 14 C-3 13.34 -3 12.68 -3 12 C-3.66 12 -4.32 12 -5 12 C-5.1953125 5.9453125 -5.1953125 5.9453125 -5 4 C-4.34 3.34 -3.68 2.68 -3 2 C-2.01 2 -1.02 2 0 2 C0 1.34 0 0.68 0 0 Z " fill="#FAEAE5" transform="translate(278,228)"/>
<path d="M0 0 C1.6396875 0.2475 1.6396875 0.2475 3.3125 0.5 C6.87525873 1.06718184 6.87525873 1.06718184 10 1 C11.09658936 4.28976808 10.79953138 5.71303767 10 9 C8.8944811 8.06409496 7.79064547 7.12620142 6.6875 6.1875 C6.07261719 5.66542969 5.45773438 5.14335937 4.82421875 4.60546875 C3.14575321 3.12827531 1.56117966 1.59960869 0 0 Z " fill="#F8E8E5" transform="translate(145,181)"/>
<path d="M0 0 C1.65 0 3.3 0 5 0 C5 0.66 5 1.32 5 2 C5.8353125 2.12375 5.8353125 2.12375 6.6875 2.25 C9.75201816 3.24389778 11.64029887 4.83162599 14 7 C14.33 7.99 14.66 8.98 15 10 C14.34 10 13.68 10 13 10 C13 9.34 13 8.68 13 8 C11.63875 7.5978125 11.63875 7.5978125 10.25 7.1875 C7.24164622 6.08829381 5.49641383 4.91391727 3 3 C0.85266073 2.29485154 0.85266073 2.29485154 -1 2 C-0.67 1.34 -0.34 0.68 0 0 Z " fill="#F8F7F7" transform="translate(319,118)"/>
<path d="M0 0 C1.8125 0.1875 1.8125 0.1875 4 1 C7 5.17857143 7 5.17857143 7 8 C7.99 8 8.98 8 10 8 C10 9.32 10 10.64 10 12 C10.66 12.33 11.32 12.66 12 13 C11.01 13 10.02 13 9 13 C6.73828125 10.6640625 6.73828125 10.6640625 4.3125 7.625 C3.10013672 6.12839844 3.10013672 6.12839844 1.86328125 4.6015625 C0 2 0 2 0 0 Z " fill="#AA3539" transform="translate(45,372)"/>
<path d="M0 0 C3.46941546 0.45822468 6.67395049 0.89131683 10 2 C10 2.66 10 3.32 10 4 C11.32 4 12.64 4 14 4 C14 4.66 14 5.32 14 6 C15.65 6 17.3 6 19 6 C17.484375 7.2109375 17.484375 7.2109375 15 8 C12.24262674 6.99678547 9.83815054 5.95576928 7.25 4.625 C6.55261719 4.28210938 5.85523438 3.93921875 5.13671875 3.5859375 C3.41744455 2.73807625 1.70773888 1.87086187 0 1 C0 0.67 0 0.34 0 0 Z " fill="#A63C3C" transform="translate(131,446)"/>
<path d="M0 0 C0.99 0 1.98 0 3 0 C3 0.66 3 1.32 3 2 C3.66 2 4.32 2 5 2 C5 3.32 5 4.64 5 6 C5.66 6 6.32 6 7 6 C7.625 8.375 7.625 8.375 8 11 C7.34 11.66 6.68 12.32 6 13 C4.99491199 11.21118264 3.99607264 9.41885304 3 7.625 C2.1646875 6.12839844 2.1646875 6.12839844 1.3125 4.6015625 C0 2 0 2 0 0 Z " fill="#AA2825" transform="translate(27,342)"/>
<path d="M0 0 C7.57142857 6.28571429 7.57142857 6.28571429 10 10 C8.35 9.67 6.7 9.34 5 9 C5 8.34 5 7.68 5 7 C3.35 7.66 1.7 8.32 0 9 C0 6.03 0 3.06 0 0 Z " fill="#B13333" transform="translate(285,321)"/>
<path d="M0 0 C1.32 0.33 2.64 0.66 4 1 C0.37 4.63 -3.26 8.26 -7 12 C-7.66 11.34 -8.32 10.68 -9 10 C-8.67 9.34 -8.34 8.68 -8 8 C-7.01 8 -6.02 8 -5 8 C-4.731875 7.236875 -4.46375 6.47375 -4.1875 5.6875 C-3.03868178 3.08754297 -2.32721056 1.61114577 0 0 Z " fill="#FAEAE5" transform="translate(291,214)"/>
<path d="M0 0 C7.57142857 6.28571429 7.57142857 6.28571429 10 10 C8.35 9.67 6.7 9.34 5 9 C5 8.34 5 7.68 5 7 C3.35 7.66 1.7 8.32 0 9 C0 6.03 0 3.06 0 0 Z " fill="#B13333" transform="translate(157,193)"/>
<path d="M0 0 C-0.33 1.32 -0.66 2.64 -1 4 C-1.66 4 -2.32 4 -3 4 C-2.67 5.65 -2.34 7.3 -2 9 C-4.62187494 7.95125002 -5.79371361 7.35068687 -7.25 4.875 C-7.4975 4.25625 -7.745 3.6375 -8 3 C-5.53387212 -0.1151089 -3.89156016 -0.31553191 0 0 Z " fill="#F4E4E5" transform="translate(124,148)"/>
<path d="M0 0 C0.66 0.33 1.32 0.66 2 1 C2.125 7.75 2.125 7.75 1 10 C-1.31 9.34 -3.62 8.68 -6 8 C-4.02 5.36 -2.04 2.72 0 0 Z " fill="#B0282B" transform="translate(347,330)"/>
<path d="M0 0 C0.66 0.99 1.32 1.98 2 3 C1.67 3.66 1.34 4.32 1 5 C0.01 5 -0.98 5 -2 5 C-2 5.66 -2 6.32 -2 7 C-2.99 7 -3.98 7 -5 7 C-5.33 8.32 -5.66 9.64 -6 11 C-7.65 11.33 -9.3 11.66 -11 12 C-7.49102731 7.81576108 -3.91939465 3.80411834 0 0 Z " fill="#A83D3E" transform="translate(194,315)"/>
<path d="M0 0 C0.66 0.99 1.32 1.98 2 3 C1.67 3.66 1.34 4.32 1 5 C0.01 5 -0.98 5 -2 5 C-2 5.66 -2 6.32 -2 7 C-2.99 7 -3.98 7 -5 7 C-5.33 8.32 -5.66 9.64 -6 11 C-7.65 11.33 -9.3 11.66 -11 12 C-7.49102731 7.81576108 -3.91939465 3.80411834 0 0 Z " fill="#A83D3E" transform="translate(322,187)"/>
<path d="M0 0 C3.37462715 0.54723683 5.08235 1.0549 8 3 C8.1875 5.625 8.1875 5.625 8 8 C8.66 8 9.32 8 10 8 C9.67 8.99 9.34 9.98 9 11 C7.33333333 9.33333333 5.66666667 7.66666667 4 6 C3.236875 5.278125 2.47375 4.55625 1.6875 3.8125 C0 2 0 2 0 0 Z " fill="#A83131" transform="translate(157,118)"/>
<path d="M0 0 C0.66 0.66 1.32 1.32 2 2 C-1.63 2 -5.26 2 -9 2 C-9 2.66 -9 3.32 -9 4 C-12.375 4.125 -12.375 4.125 -16 4 C-16.66 3.34 -17.32 2.68 -18 2 C-16.12612523 1.6603981 -14.25083303 1.32861309 -12.375 1 C-11.33085937 0.814375 -10.28671875 0.62875 -9.2109375 0.4375 C-6.06344618 0.00864473 -3.1698837 -0.21798627 0 0 Z " fill="#A53032" transform="translate(211,2)"/>
<path d="M0 0 C6.44070471 -0.10655578 12.62641289 0.03794912 19 1 C15.65060119 3.02558881 13.13037449 3.21738987 9.25 3.125 C8.26515625 3.10695313 7.2803125 3.08890625 6.265625 3.0703125 C5.14414063 3.03550781 5.14414063 3.03550781 4 3 C4 2.34 4 1.68 4 1 C2.68 0.67 1.36 0.34 0 0 Z " fill="#AB2A2E" transform="translate(249,1)"/>
<path d="M0 0 C0.99 0.33 1.98 0.66 3 1 C-0.63 4.63 -4.26 8.26 -8 12 C-8.33 10.68 -8.66 9.36 -9 8 C-8.195625 7.38125 -7.39125 6.7625 -6.5625 6.125 C-3.96125481 4.25835959 -3.96125481 4.25835959 -3 2 C-2.01 2 -1.02 2 0 2 C0 1.34 0 0.68 0 0 Z " fill="#FBE8E3" transform="translate(232,274)"/>
<path d="M0 0 C1 2 1 2 0.75 4.0625 C0.5025 4.701875 0.255 5.34125 0 6 C-0.99 6.33 -1.98 6.66 -3 7 C-3.33 7.99 -3.66 8.98 -4 10 C-6.9375 11.75 -6.9375 11.75 -10 13 C-10.66 12.67 -11.32 12.34 -12 12 C-11.55269531 11.63648438 -11.10539063 11.27296875 -10.64453125 10.8984375 C-6.61206348 7.5452127 -3.23995546 4.12357967 0 0 Z " fill="#ECC8C0" transform="translate(169,266)"/>
<path d="M0 0 C1 2 1 2 0.75 4.0625 C0.5025 4.701875 0.255 5.34125 0 6 C-0.99 6.33 -1.98 6.66 -3 7 C-3.33 7.99 -3.66 8.98 -4 10 C-6.9375 11.75 -6.9375 11.75 -10 13 C-10.66 12.67 -11.32 12.34 -12 12 C-11.55269531 11.63648438 -11.10539062 11.27296875 -10.64453125 10.8984375 C-6.61206348 7.5452127 -3.23995546 4.12357967 0 0 Z " fill="#ECC8C0" transform="translate(297,138)"/>
<path d="M0 0 C1.11375 0.1546875 1.11375 0.1546875 2.25 0.3125 C2.91 1.6325 3.57 2.9525 4.25 4.3125 C3.59 4.3125 2.93 4.3125 2.25 4.3125 C2.25 3.6525 2.25 2.9925 2.25 2.3125 C0.6 2.3125 -1.05 2.3125 -2.75 2.3125 C-3.08 3.9625 -3.41 5.6125 -3.75 7.3125 C-4.74 7.6425 -5.73 7.9725 -6.75 8.3125 C-6.75 8.9725 -6.75 9.6325 -6.75 10.3125 C-7.41 10.3125 -8.07 10.3125 -8.75 10.3125 C-7.14491116 5.63099089 -5.37883701 0.61123148 0 0 Z " fill="#F1D2D4" transform="translate(321.75,115.6875)"/>
<path d="M0 0 C2.31 0 4.62 0 7 0 C6.67 1.32 6.34 2.64 6 4 C4.68 3.34 3.36 2.68 2 2 C-0.97 4.97 -3.94 7.94 -7 11 C-7.33 10.01 -7.66 9.02 -8 8 C-7.34 8 -6.68 8 -6 8 C-6 7.34 -6 6.68 -6 6 C-5.34 6 -4.68 6 -4 6 C-4 5.34 -4 4.68 -4 4 C-3.34 4 -2.68 4 -2 4 C-2 3.34 -2 2.68 -2 2 C-1.34 2 -0.68 2 0 2 C0 1.34 0 0.68 0 0 Z " fill="#A02F2C" transform="translate(150,114)"/>
<path d="M0 0 C1.32 0 2.64 0 4 0 C4 0.99 4 1.98 4 3 C7.465 2.505 7.465 2.505 11 2 C10.34 3.98 9.68 5.96 9 8 C5.01824456 5.89851796 2.64960955 3.63094642 0 0 Z " fill="#AD2A2E" transform="translate(79,410)"/>
<path d="M0 0 C2.375 0.1875 2.375 0.1875 5 1 C5.309375 1.78375 5.61875 2.5675 5.9375 3.375 C6.81762563 6.32131188 6.81762563 6.32131188 10.125 7.8125 C11.07375 8.204375 12.0225 8.59625 13 9 C12.67 9.99 12.34 10.98 12 12 C6.63885521 8.53102396 3.46897604 5.36114479 0 0 Z " fill="#F7DCDA" transform="translate(136,340)"/>
<path d="M0 0 C0.66 0 1.32 0 2 0 C1.67 1.98 1.34 3.96 1 6 C0.34 6 -0.32 6 -1 6 C-1.33 6.66 -1.66 7.32 -2 8 C-2.66 8 -3.32 8 -4 8 C-4 8.66 -4 9.32 -4 10 C-5.32 10 -6.64 10 -8 10 C-6.50104329 6.18447383 -4.2013144 4.46254954 -1 2 C-0.67 1.34 -0.34 0.68 0 0 Z " fill="#F1D6D4" transform="translate(197,238)"/>
<path d="M0 0 C0.33 0.66 0.66 1.32 1 2 C0.0625 4.125 0.0625 4.125 -1 6 C-1.66 6 -2.32 6 -3 6 C-3.33 7.32 -3.66 8.64 -4 10 C-4.66 10 -5.32 10 -6 10 C-6 11.32 -6 12.64 -6 14 C-7.32 13.67 -8.64 13.34 -10 13 C-8.5217985 11.02010587 -7.0424882 9.04105782 -5.5625 7.0625 C-5.14162109 6.49853516 -4.72074219 5.93457031 -4.28710938 5.35351562 C-1.11328125 1.11328125 -1.11328125 1.11328125 0 0 Z " fill="#A8373B" transform="translate(55,86)"/>
<path d="M0 0 C2.475 0.495 2.475 0.495 5 1 C5 1.66 5 2.32 5 3 C6.65 3 8.3 3 10 3 C10 2.34 10 1.68 10 1 C10.99 1 11.98 1 13 1 C13 2.32 13 3.64 13 5 C10.44230189 5.93007204 8.70731153 6.28739184 6.14453125 5.24609375 C1.25777897 2.51555794 1.25777897 2.51555794 0 0 Z " fill="#AB2223" transform="translate(92,421)"/>
<path d="M0 0 C1.65 0 3.3 0 5 0 C5 1.32 5 2.64 5 4 C6.32 4 7.64 4 9 4 C9.33 5.98 9.66 7.96 10 10 C5.25091453 7.19372222 2.80627778 4.74908547 0 0 Z " fill="#9F282A" transform="translate(343,136)"/>
<path d="M0 0 C1.2989839 0.90626784 2.58893167 1.82549537 3.875 2.75 C4.59429687 3.26046875 5.31359375 3.7709375 6.0546875 4.296875 C8.10061524 6.08808884 8.86659418 7.56981455 10 10 C10.66 10.33 11.32 10.66 12 11 C11.01 11 10.02 11 9 11 C8.67 10.34 8.34 9.68 8 9 C6.02111039 8.27306096 4.02045442 7.60183749 2 7 C2.33 6.01 2.66 5.02 3 4 C2.01 4 1.02 4 0 4 C0 2.68 0 1.36 0 0 Z " fill="#A72F33" transform="translate(393,60)"/>
<path d="M0 0 C1.21236328 0.02707031 1.21236328 0.02707031 2.44921875 0.0546875 C3.37154297 0.08949219 3.37154297 0.08949219 4.3125 0.125 C4.3125 0.785 4.3125 1.445 4.3125 2.125 C5.9625 2.125 7.6125 2.125 9.3125 2.125 C9.3125 2.455 9.3125 2.785 9.3125 3.125 C7.41674749 3.15221176 5.52088021 3.17149136 3.625 3.1875 C2.04138672 3.20490234 2.04138672 3.20490234 0.42578125 3.22265625 C-2.41160262 3.13365425 -4.9313919 2.77439838 -7.6875 2.125 C-4.48369983 -0.01086678 -3.66810033 -0.10632175 0 0 Z " fill="#A62529" transform="translate(200.6875,465.875)"/>
<path d="M0 0 C7.48291572 6.15034169 7.48291572 6.15034169 10 10 C8.68 10 7.36 10 6 10 C6 9.34 6 8.68 6 8 C5.34 8 4.68 8 4 8 C4 7.34 4 6.68 4 6 C3.01 6 2.02 6 1 6 C0.67 4.02 0.34 2.04 0 0 Z " fill="#FAEBE5" transform="translate(311,274)"/>
<path d="M0 0 C0.33 0 0.66 0 1 0 C0.54240047 6.5508985 -0.2100144 12.6753842 -2 19 C-2.33 19 -2.66 19 -3 19 C-2.67 13.39 -2.34 7.78 -2 2 C-1.34 2 -0.68 2 0 2 C0 1.34 0 0.68 0 0 Z " fill="#9D2B2E" transform="translate(468,274)"/>
<path d="M0 0 C0.99 0.33 1.98 0.66 3 1 C0.03 3.97 -2.94 6.94 -6 10 C-7 6 -7 6 -5.8125 3.75 C-4 2 -4 2 0 2 C0 1.34 0 0.68 0 0 Z " fill="#FAEBE6" transform="translate(302,204)"/>
<path d="M0 0 C7.48291572 6.15034169 7.48291572 6.15034169 10 10 C8.68 10 7.36 10 6 10 C6 9.34 6 8.68 6 8 C5.34 8 4.68 8 4 8 C4 7.34 4 6.68 4 6 C3.01 6 2.02 6 1 6 C0.67 4.02 0.34 2.04 0 0 Z " fill="#FAEBE5" transform="translate(183,146)"/>
<path d="M0 0 C0.99 0 1.98 0 3 0 C1.79157144 4.43090471 0.48331435 6.98112756 -3 10 C-3.625 7.6875 -3.625 7.6875 -4 5 C-3.34 4.01 -2.68 3.02 -2 2 C-1.34 2 -0.68 2 0 2 C0 1.34 0 0.68 0 0 Z " fill="#AA2327" transform="translate(437,354)"/>
<path d="M0 0 C7.48291572 6.15034169 7.48291572 6.15034169 10 10 C4.25 8.125 4.25 8.125 2 7 C2 5.68 2 4.36 2 3 C0.35 2.67 -1.3 2.34 -3 2 C-2.01 1.34 -1.02 0.68 0 0 Z " fill="#AD3C3B" transform="translate(307,343)"/>
<path d="M0 0 C3.16115776 1.36983503 3.9927092 1.9890638 6 5 C2.37 5.33 -1.26 5.66 -5 6 C-3.35 4.02 -1.7 2.04 0 0 Z " fill="#A64142" transform="translate(236,273)"/>
<path d="M0 0 C0.66 0.33 1.32 0.66 2 1 C0.58226538 4.54433654 -0.67612238 5.33806119 -4 7 C-4.309375 7.680625 -4.61875 8.36125 -4.9375 9.0625 C-5.288125 9.701875 -5.63875 10.34125 -6 11 C-8.625 11.75 -8.625 11.75 -11 12 C-7.49102731 7.81576108 -3.91939465 3.80411834 0 0 Z " fill="#A94142" transform="translate(358,151)"/>
<path d="M0 0 C1.32 0 2.64 0 4 0 C4 0.66 4 1.32 4 2 C4.66 2 5.32 2 6 2 C6.33 3.32 6.66 4.64 7 6 C7.99 6 8.98 6 10 6 C10.33 7.32 10.66 8.64 11 10 C7.81326038 8.59698853 5.67778594 6.92234929 3.25 4.4375 C2.63640625 3.81746094 2.0228125 3.19742187 1.390625 2.55859375 C0 1 0 1 0 0 Z " fill="#A94446" transform="translate(68,400)"/>
<path d="M0 0 C0.66 0 1.32 0 2 0 C0.52278578 3.45201639 -1.43794001 5.64961936 -4.125 8.25 C-4.84945313 8.95640625 -5.57390625 9.6628125 -6.3203125 10.390625 C-6.87460937 10.92171875 -7.42890625 11.4528125 -8 12 C-8.33 10.68 -8.66 9.36 -9 8 C-8.34 8 -7.68 8 -7 8 C-7 7.34 -7 6.68 -7 6 C-6.01 6 -5.02 6 -4 6 C-4 5.34 -4 4.68 -4 4 C-3.34 4 -2.68 4 -2 4 C-2 3.34 -2 2.68 -2 2 C-1.34 2 -0.68 2 0 2 C0 1.34 0 0.68 0 0 Z " fill="#A13133" transform="translate(416,386)"/>
<path d="M0 0 C4.47726973 2.95668756 7.59983652 5.05848696 10 10 C6 10 6 10 3.3125 7.8125 C1.00028808 5.00035037 0.30518654 3.56050965 0 0 Z " fill="#F6E3DD" transform="translate(285,248)"/>
<path d="M0 0 C1.98 0 3.96 0 6 0 C6.66 2.31 7.32 4.62 8 7 C7.01 7 6.02 7 5 7 C0 1.53488372 0 1.53488372 0 0 Z " fill="#B02A30" transform="translate(211,172)"/>
<path d="M0 0 C7 8.44827586 7 8.44827586 7 12 C6.01 12.33 5.02 12.66 4 13 C3.80664062 12.43410156 3.61328125 11.86820313 3.4140625 11.28515625 C3.15367187 10.55167969 2.89328125 9.81820312 2.625 9.0625 C2.24214844 7.96615234 2.24214844 7.96615234 1.8515625 6.84765625 C1.14728587 4.81317884 1.14728587 4.81317884 -1 4 C-0.67 2.68 -0.34 1.36 0 0 Z " fill="#A82F31" transform="translate(437,112)"/>
<path d="M0 0 C5.05663427 3.42066436 7.83507897 7.91002391 11 13 C9.02 12.34 7.04 11.68 5 11 C4.67 9.02 4.34 7.04 4 5 C3.01 4.67 2.02 4.34 1 4 C0.3125 1.9375 0.3125 1.9375 0 0 Z " fill="#A93235" transform="translate(412,79)"/>
<path d="M0 0 C1.65 0 3.3 0 5 0 C5.33 1.65 5.66 3.3 6 5 C6.99 5 7.98 5 9 5 C9.33 6.65 9.66 8.3 10 10 C2.51708428 3.84965831 2.51708428 3.84965831 0 0 Z " fill="#AB3E3D" transform="translate(295,257)"/>
<path d="M0 0 C1.65 0 3.3 0 5 0 C5.33 1.65 5.66 3.3 6 5 C6.99 5 7.98 5 9 5 C9.33 6.65 9.66 8.3 10 10 C2.51708428 3.84965831 2.51708428 3.84965831 0 0 Z " fill="#AB3E3D" transform="translate(167,129)"/>
<path d="M0 0 C0.66 0 1.32 0 2 0 C2 0.66 2 1.32 2 2 C4.64 2 7.28 2 10 2 C7.85668861 4.14331139 6.85913576 4.514193 4 5.25 C2.948125 5.53617187 2.948125 5.53617187 1.875 5.828125 C1.25625 5.88484375 0.6375 5.9415625 0 6 C-0.66 5.34 -1.32 4.68 -2 4 C-1.01 4 -0.02 4 1 4 C0.67 2.68 0.34 1.36 0 0 Z " fill="#AB2828" transform="translate(315,452)"/>
<path d="M0 0 C0.33 1.98 0.66 3.96 1 6 C1.99 6 2.98 6 4 6 C4.33 7.65 4.66 9.3 5 11 C1.00073014 8.02911382 -1.92118304 4.87051275 -5 1 C-2 0 -2 0 0 0 Z " fill="#AA3839" transform="translate(348,304)"/>
<path d="M0 0 C0.33 0.66 0.66 1.32 1 2 C-2.75 6.875 -2.75 6.875 -5 8 C-5.65213292 10.02463255 -5.65213292 10.02463255 -6 12 C-7.32 12 -8.64 12 -10 12 C-8.49433536 8.1673991 -6.19742787 6.49555346 -3 4 C-1.23676495 1.87396815 -1.23676495 1.87396815 0 0 Z " fill="#EAC7C1" transform="translate(135,300)"/>
<path d="M0 0 C1.65 0 3.3 0 5 0 C5 1.32 5 2.64 5 4 C5.66 4 6.32 4 7 4 C7.33 5.65 7.66 7.3 8 9 C6.84775972 8.07038578 5.70340824 7.1309875 4.5625 6.1875 C3.60537109 5.40439453 3.60537109 5.40439453 2.62890625 4.60546875 C1 3 1 3 0 0 Z " fill="#A22829" transform="translate(332,124)"/>
<path d="M0 0 C-0.99 0.33 -1.98 0.66 -3 1 C-3.99 2.485 -3.99 2.485 -5 4 C-8 4.3125 -8 4.3125 -11 4 C-11.66 3.34 -12.32 2.68 -13 2 C-11.5882217 1.46605821 -10.17029756 0.94834896 -8.75 0.4375 C-7.96109375 0.14746094 -7.1721875 -0.14257812 -6.359375 -0.44140625 C-3.80896548 -1.04522837 -2.44677771 -0.8473932 0 0 Z " fill="#AB3135" transform="translate(169,12)"/>
<path d="M0 0 C3.02990095 1.71967351 5.76327296 3.29238306 8 6 C8 6.66 8 7.32 8 8 C7.01 8 6.02 8 5 8 C5 7.34 5 6.68 5 6 C3.68 6 2.36 6 1 6 C0.67 4.02 0.34 2.04 0 0 Z " fill="#A53233" transform="translate(261,298)"/>
<path d="M0 0 C3.02990095 1.71967351 5.76327296 3.29238306 8 6 C8 6.66 8 7.32 8 8 C7.01 8 6.02 8 5 8 C5 7.34 5 6.68 5 6 C3.68 6 2.36 6 1 6 C0.67 4.02 0.34 2.04 0 0 Z " fill="#A53233" transform="translate(133,170)"/>
<path d="M0 0 C0.99 0.33 1.98 0.66 3 1 C0.03 3.97 -2.94 6.94 -6 10 C-6.33 8.68 -6.66 7.36 -7 6 C-6.01 6 -5.02 6 -4 6 C-3.67 4.68 -3.34 3.36 -3 2 C-2.01 2 -1.02 2 0 2 C0 1.34 0 0.68 0 0 Z " fill="#FCE8E1" transform="translate(190,316)"/>
<path d="M0 0 C0.66 0.33 1.32 0.66 2 1 C-0.07306398 5.29420396 -2.06156371 8.24309459 -6 11 C-4.55662437 7.11398869 -2.98188088 2.98188088 0 0 Z " fill="#A82626" transform="translate(230,279)"/>
<path d="M0 0 C0.99 0.33 1.98 0.66 3 1 C0.03 3.97 -2.94 6.94 -6 10 C-6.33 8.68 -6.66 7.36 -7 6 C-6.01 6 -5.02 6 -4 6 C-3.67 4.68 -3.34 3.36 -3 2 C-2.01 2 -1.02 2 0 2 C0 1.34 0 0.68 0 0 Z " fill="#FCE8E1" transform="translate(318,188)"/>
<path d="M0 0 C3.03918463 4.55877695 4.29408315 9.5983209 3.625 15.0625 C3.41875 15.701875 3.2125 16.34125 3 17 C0.84940691 13.46813168 0.6202272 10.33712007 0.375 6.25 C0.30023438 5.07953125 0.22546875 3.9090625 0.1484375 2.703125 C0.09945313 1.81109375 0.05046875 0.9190625 0 0 Z " fill="#A53139" transform="translate(464,175)"/>
<path d="M0 0 C0.99 0 1.98 0 3 0 C1.49776416 4.20626034 -1.28550034 5.73900021 -5 8 C-5.33 7.34 -5.66 6.68 -6 6 C-4.6875 4 -4.6875 4 -3 2 C-2.01 2 -1.02 2 0 2 C0 1.34 0 0.68 0 0 Z " fill="#A22927" transform="translate(250,182)"/>
<path d="M0 0 C4.77609498 1.64178265 8.79382904 4.26546702 13 7 C12.01 7.66 11.02 8.32 10 9 C8.82780457 8.21654285 7.66236332 7.42297164 6.5 6.625 C5.8503125 6.18414062 5.200625 5.74328125 4.53125 5.2890625 C4.0259375 4.86367188 3.520625 4.43828125 3 4 C3 3.34 3 2.68 3 2 C2.01 2 1.02 2 0 2 C0 1.34 0 0.68 0 0 Z " fill="#A13132" transform="translate(357,34)"/>
<path d="M0 0 C4.37934119 0.51958285 8.68803391 1.05675742 13 2 C12.67 2.99 12.34 3.98 12 5 C10.37276701 4.54965877 8.74826336 4.08944646 7.125 3.625 C5.76761719 3.24214844 5.76761719 3.24214844 4.3828125 2.8515625 C2 2 2 2 0 0 Z " fill="#AA373A" transform="translate(149,454)"/>
<path d="M0 0 C2.475 0.495 2.475 0.495 5 1 C5.33 1.99 5.66 2.98 6 4 C6.99 4.33 7.98 4.66 9 5 C8.01 6.485 8.01 6.485 7 8 C5.83035398 6.8572081 4.66435444 5.71068285 3.5 4.5625 C2.8503125 3.92441406 2.200625 3.28632813 1.53125 2.62890625 C0 1 0 1 0 0 Z " fill="#F9EDE4" transform="translate(283,318)"/>
<path d="M0 0 C2.475 0.495 2.475 0.495 5 1 C5.33 1.99 5.66 2.98 6 4 C6.99 4.33 7.98 4.66 9 5 C8.01 6.485 8.01 6.485 7 8 C5.83035398 6.8572081 4.66435444 5.71068285 3.5 4.5625 C2.8503125 3.92441406 2.200625 3.28632813 1.53125 2.62890625 C0 1 0 1 0 0 Z " fill="#F9EDE4" transform="translate(155,190)"/>
<path d="M0 0 C0.763125 0.20625 1.52625 0.4125 2.3125 0.625 C2.3125 1.615 2.3125 2.605 2.3125 3.625 C-0.3275 3.625 -2.9675 3.625 -5.6875 3.625 C-5.6875 2.965 -5.6875 2.305 -5.6875 1.625 C-2.6875 -0.375 -2.6875 -0.375 0 0 Z " fill="#B01C1F" transform="translate(370.6875,42.375)"/>
<path d="M0 0 C3.11954738 0.33724836 4.6209965 0.6209965 6.875 2.875 C7.24625 3.57625 7.6175 4.2775 8 5 C7.67 5.99 7.34 6.98 7 8 C5.83035398 6.8572081 4.66435444 5.71068285 3.5 4.5625 C2.8503125 3.92441406 2.200625 3.28632813 1.53125 2.62890625 C0 1 0 1 0 0 Z " fill="#FAECE2" transform="translate(291,326)"/>
<path d="M0 0 C1.32 0 2.64 0 4 0 C2.88333826 3.34998521 2.25305075 3.79340222 -0.5625 5.6875 C-1.20316406 6.12449219 -1.84382812 6.56148438 -2.50390625 7.01171875 C-2.99761719 7.33785156 -3.49132812 7.66398437 -4 8 C-4 6.68 -4 5.36 -4 4 C-3.01 4 -2.02 4 -1 4 C-0.67 2.68 -0.34 1.36 0 0 Z " fill="#A12425" transform="translate(145,286)"/>
<path d="M0 0 C1.14926266 0.95421808 2.29430541 1.91352045 3.4375 2.875 C4.07558594 3.40867187 4.71367187 3.94234375 5.37109375 4.4921875 C7 6 7 6 8 8 C6.68 8 5.36 8 4 8 C4 7.34 4 6.68 4 6 C3.34 6 2.68 6 2 6 C2 5.34 2 4.68 2 4 C1.01 3.67 0.02 3.34 -1 3 C-0.67 2.01 -0.34 1.02 0 0 Z " fill="#F8EDE4" transform="translate(295,258)"/>
<path d="M0 0 C1.32 0.33 2.64 0.66 4 1 C1.42215154 3.64752004 -0.91648098 5.94432065 -4 8 C-3.34 6.02 -2.68 4.04 -2 2 C-1.34 2 -0.68 2 0 2 C0 1.34 0 0.68 0 0 Z " fill="#A72424" transform="translate(179,252)"/>
<path d="M0 0 C3.11954738 0.33724836 4.6209965 0.6209965 6.875 2.875 C7.24625 3.57625 7.6175 4.2775 8 5 C7.67 5.99 7.34 6.98 7 8 C5.83035398 6.8572081 4.66435444 5.71068285 3.5 4.5625 C2.8503125 3.92441406 2.200625 3.28632813 1.53125 2.62890625 C0 1 0 1 0 0 Z " fill="#FAECE2" transform="translate(163,198)"/>
<path d="M0 0 C0.33 0.99 0.66 1.98 1 3 C-0.4375 5.6875 -0.4375 5.6875 -2 8 C-3.32 7.67 -4.64 7.34 -6 7 C-4.02 4.69 -2.04 2.38 0 0 Z " fill="#F0D1CB" transform="translate(249,186)"/>
<path d="M0 0 C1.32 0 2.64 0 4 0 C2.88333826 3.34998521 2.25305075 3.79340222 -0.5625 5.6875 C-1.20316406 6.12449219 -1.84382812 6.56148437 -2.50390625 7.01171875 C-2.99761719 7.33785156 -3.49132812 7.66398438 -4 8 C-4 6.68 -4 5.36 -4 4 C-3.01 4 -2.02 4 -1 4 C-0.67 2.68 -0.34 1.36 0 0 Z " fill="#A22426" transform="translate(257,174)"/>
<path d="M0 0 C1.32 0 2.64 0 4 0 C2.88333826 3.34998521 2.25305075 3.79340222 -0.5625 5.6875 C-1.20316406 6.12449219 -1.84382813 6.56148437 -2.50390625 7.01171875 C-2.99761719 7.33785156 -3.49132812 7.66398438 -4 8 C-4 6.68 -4 5.36 -4 4 C-3.01 4 -2.02 4 -1 4 C-0.67 2.68 -0.34 1.36 0 0 Z " fill="#A12425" transform="translate(273,158)"/>
<path d="M0 0 C0.66 0.99 1.32 1.98 2 3 C0.625 6.6875 0.625 6.6875 -1 10 C-1.66 10 -2.32 10 -3 10 C-3 11.32 -3 12.64 -3 14 C-3.66 14 -4.32 14 -5 14 C-4.54636829 12.41531323 -4.08688548 10.83230076 -3.625 9.25 C-3.36976562 8.36828125 -3.11453125 7.4865625 -2.8515625 6.578125 C-2.0790066 4.23919428 -1.16374324 2.16557438 0 0 Z " fill="#A54144" transform="translate(23,136)"/>
<path d="M0 0 C1.14926266 0.95421808 2.29430541 1.91352045 3.4375 2.875 C4.07558594 3.40867188 4.71367187 3.94234375 5.37109375 4.4921875 C7 6 7 6 8 8 C6.68 8 5.36 8 4 8 C4 7.34 4 6.68 4 6 C3.34 6 2.68 6 2 6 C2 5.34 2 4.68 2 4 C1.01 3.67 0.02 3.34 -1 3 C-0.67 2.01 -0.34 1.02 0 0 Z " fill="#F8EDE4" transform="translate(167,130)"/>
<path d="M0 0 C2.62187494 1.04874998 3.79371361 1.64931313 5.25 4.125 C5.4975 4.74375 5.745 5.3625 6 6 C5.01 6.495 5.01 6.495 4 7 C3.01 6.34 2.02 5.68 1 5 C1 4.34 1 3.68 1 3 C0.01 2.67 -0.98 2.34 -2 2 C-1.34 1.34 -0.68 0.68 0 0 Z " fill="#F3CCCC" transform="translate(152,115)"/>
<path d="M0 0 C2.64 0 5.28 0 8 0 C8.33 1.65 8.66 3.3 9 5 C5.54074837 3.7508258 2.85306797 2.32472205 0 0 Z " fill="#A93534" transform="translate(116,438)"/>
<path d="M0 0 C0.99 0.33 1.98 0.66 3 1 C0.69 3.31 -1.62 5.62 -4 8 C-4.33 6.68 -4.66 5.36 -5 4 C-2.6875 1.9375 -2.6875 1.9375 0 0 Z " fill="#F9DAD9" transform="translate(353,322)"/>
<path d="M0 0 C-1.25 1.5 -1.25 1.5 -3 3 C-4.32 3 -5.64 3 -7 3 C-7 3.66 -7 4.32 -7 5 C-7.99 4.67 -8.98 4.34 -10 4 C-7.19291889 -0.21062166 -4.92322234 -1.75829369 0 0 Z " fill="#F7F5ED" transform="translate(221,289)"/>
<path d="M0 0 C2.04119788 1.61594832 4.04072937 3.2856382 6 5 C6 5.66 6 6.32 6 7 C4.35 7 2.7 7 1 7 C0.67 4.69 0.34 2.38 0 0 Z " fill="#A73534" transform="translate(247,283)"/>
<path d="M0 0 C0.33 0.99 0.66 1.98 1 3 C0.34 3 -0.32 3 -1 3 C-0.67 4.32 -0.34 5.64 0 7 C-2.62187494 5.95125002 -3.79371361 5.35068687 -5.25 2.875 C-5.4975 2.25625 -5.745 1.6375 -6 1 C-4.02 0.67 -2.04 0.34 0 0 Z " fill="#F7E3E2" transform="translate(257,285)"/>
<path d="M0 0 C0.66 0 1.32 0 2 0 C2 0.66 2 1.32 2 2 C2.9590625 2.3403125 2.9590625 2.3403125 3.9375 2.6875 C6 4 6 4 6.75 6.625 C6.8325 7.40875 6.915 8.1925 7 9 C3.46352496 7.32482761 2.2088437 6.50719183 0.6875 2.8125 C0.460625 1.884375 0.23375 0.95625 0 0 Z " fill="#F7E2DB" transform="translate(243,276)"/>
<path d="M0 0 C1.32 0.33 2.64 0.66 4 1 C1.69 3.31 -0.62 5.62 -3 8 C-3.33 6.68 -3.66 5.36 -4 4 C-3.34 4 -2.68 4 -2 4 C-2 3.34 -2 2.68 -2 2 C-1.34 2 -0.68 2 0 2 C0 1.34 0 0.68 0 0 Z " fill="#F9EBE3" transform="translate(339,166)"/>
<path d="M0 0 C1.32 0.33 2.64 0.66 4 1 C1.03 4.96 1.03 4.96 -2 9 C-2.33 8.01 -2.66 7.02 -3 6 C-2.67 5.34 -2.34 4.68 -2 4 C-1.34 4 -0.68 4 0 4 C0 2.68 0 1.36 0 0 Z " fill="#A53135" transform="translate(425,372)"/>
<path d="M0 0 C1.32 0.66 2.64 1.32 4 2 C0.535 4.97 0.535 4.97 -3 8 C-2.45276317 4.62537285 -1.9451 2.91765 0 0 Z " fill="#F8DEE1" transform="translate(327,346)"/>
<path d="M0 0 C0.99 0 1.98 0 3 0 C1.49776416 4.20626034 -1.28550034 5.73900021 -5 8 C-5 6.68 -5 5.36 -5 4 C-4.01 4 -3.02 4 -2 4 C-2 3.34 -2 2.68 -2 2 C-1.34 2 -0.68 2 0 2 C0 1.34 0 0.68 0 0 Z " fill="#A12B27" transform="translate(194,238)"/>
<path d="M0 0 C2.64752004 2.57784846 4.94432065 4.91648098 7 8 C5.68 8 4.36 8 3 8 C3 7.34 3 6.68 3 6 C2.01 5.67 1.02 5.34 0 5 C0 3.35 0 1.7 0 0 Z " fill="#F2D4CE" transform="translate(226,188)"/>
<path d="M0 0 C0 0.99 0 1.98 0 3 C-0.99 3.495 -0.99 3.495 -2 4 C-2 3.01 -2 2.02 -2 1 C-1.34 0.67 -0.68 0.34 0 0 Z M-5 4 C-4.01 4 -3.02 4 -2 4 C-2.33 5.32 -2.66 6.64 -3 8 C-3.66 8 -4.32 8 -5 8 C-5 8.66 -5 9.32 -5 10 C-5.66 10 -6.32 10 -7 10 C-6.34 8.02 -5.68 6.04 -5 4 Z " fill="#A82827" transform="translate(33,122)"/>
<path d="M0 0 C0.99 0 1.98 0 3 0 C3 1.32 3 2.64 3 4 C3.99 4 4.98 4 6 4 C6.33 4.99 6.66 5.98 7 7 C6.34 7.66 5.68 8.32 5 9 C4.16094435 7.87926138 3.32892169 6.75325453 2.5 5.625 C2.0359375 4.99851562 1.571875 4.37203125 1.09375 3.7265625 C0 2 0 2 0 0 Z " fill="#A83D40" transform="translate(37,360)"/>
<path d="M0 0 C1.32 0.33 2.64 0.66 4 1 C1.69 3.31 -0.62 5.62 -3 8 C-3.33 6.68 -3.66 5.36 -4 4 C-3.01 4 -2.02 4 -1 4 C-0.67 2.68 -0.34 1.36 0 0 Z " fill="#FBE8E1" transform="translate(203,302)"/>
<path d="M0 0 C3.36179774 1.44077046 5.59156268 3.24750021 8 6 C8 6.66 8 7.32 8 8 C7.01 8 6.02 8 5 8 C5 7.34 5 6.68 5 6 C4.34 6 3.68 6 3 6 C3 5.34 3 4.68 3 4 C2.34 4 1.68 4 1 4 C0.67 2.68 0.34 1.36 0 0 Z " fill="#A42E30" transform="translate(253,290)"/>
<path d="M0 0 C1.32 0.33 2.64 0.66 4 1 C1.69 3.31 -0.62 5.62 -3 8 C-3.33 6.68 -3.66 5.36 -4 4 C-3.01 4 -2.02 4 -1 4 C-0.67 2.68 -0.34 1.36 0 0 Z " fill="#FBE8E1" transform="translate(331,174)"/>
<path d="M0 0 C0.99 0.33 1.98 0.66 3 1 C1.02 3.31 -0.96 5.62 -3 8 C-3.33 6.68 -3.66 5.36 -4 4 C-3.34 4 -2.68 4 -2 4 C-2 3.34 -2 2.68 -2 2 C-1.34 2 -0.68 2 0 2 C0 1.34 0 0.68 0 0 Z " fill="#F8EEE5" transform="translate(347,158)"/>
<path d="M0 0 C0 2.62113708 -0.31292445 4.50935112 -1 7 C-2.98 7.33 -4.96 7.66 -7 8 C-6.21366078 6.85050412 -5.42073742 5.70551011 -4.625 4.5625 C-4.18414062 3.92441406 -3.74328125 3.28632813 -3.2890625 2.62890625 C-2 1 -2 1 0 0 Z " fill="#F2D1D3" transform="translate(127,140)"/>
<path d="M0 0 C2 1 2 1 2.8515625 3.28515625 C3.10679687 4.20167969 3.36203125 5.11820313 3.625 6.0625 C3.88539063 6.98160156 4.14578125 7.90070313 4.4140625 8.84765625 C4.60742188 9.55792969 4.80078125 10.26820313 5 11 C4.34 11 3.68 11 3 11 C0.84694043 7.14243493 -0.39253254 4.44870215 0 0 Z " fill="#A03130" transform="translate(451,139)"/>
<path d="M0 0 C2.40072955 2.88087546 4.47291037 5.56404834 6 9 C4.68 9 3.36 9 2 9 C2 7.68 2 6.36 2 5 C1.34 5 0.68 5 0 5 C0 3.35 0 1.7 0 0 Z " fill="#A42B2D" transform="translate(431,103)"/>
<path d="M0 0 C0.33 0.66 0.66 1.32 1 2 C1.66 2 2.32 2 3 2 C4.38938077 3.96147874 5.7260411 5.96166576 7 8 C6.01 8.33 5.02 8.66 4 9 C3.67 7.68 3.34 6.36 3 5 C1.68 4.67 0.36 4.34 -1 4 C-0.67 2.68 -0.34 1.36 0 0 Z " fill="#A2292E" transform="translate(405,71)"/>
<path d="M0 0 C0.66 0 1.32 0 2 0 C0.50902342 3.7952131 -1.75700849 5.61042731 -5 8 C-5 6.68 -5 5.36 -5 4 C-4.34 4 -3.68 4 -3 4 C-3 3.34 -3 2.68 -3 2 C-2.01 2 -1.02 2 0 2 C0 1.34 0 0.68 0 0 Z " fill="#AC4045" transform="translate(405,398)"/>
<path d="M0 0 C2.475 0.495 2.475 0.495 5 1 C5 1.66 5 2.32 5 3 C5.66 3 6.32 3 7 3 C6.67 3.99 6.34 4.98 6 6 C4.125 5.8125 4.125 5.8125 2 5 C0.75 2.4375 0.75 2.4375 0 0 Z " fill="#B41F26" transform="translate(34,355)"/>
<path d="M0 0 C0 3.21518097 -0.1621112 4.41024759 -2 7 C-5.125 8.25 -5.125 8.25 -8 9 C-7.04270084 7.87411986 -6.08412105 6.7493285 -5.125 5.625 C-4.59132812 4.99851562 -4.05765625 4.37203125 -3.5078125 3.7265625 C-2.38567993 2.44163349 -1.20628025 1.20628025 0 0 Z " fill="#A94C4A" transform="translate(162,347)"/>
<path d="M0 0 C0.66 0 1.32 0 2 0 C0.8141763 3.37503669 -0.27573689 5.64722731 -3 8 C-3.33 6.02 -3.66 4.04 -4 2 C-2.68 2 -1.36 2 0 2 C0 1.34 0 0.68 0 0 Z " fill="#A92B2C" transform="translate(443,346)"/>
<path d="M0 0 C0.33 0.66 0.66 1.32 1 2 C1.66 2.33 2.32 2.66 3 3 C1.824375 3.37125 1.824375 3.37125 0.625 3.75 C-2.32317108 5.15389099 -2.9024777 6.00675737 -4 9 C-4 5.28703828 -2.65223411 2.65223411 0 0 Z " fill="#A72D2C" transform="translate(182,327)"/>
<path d="M0 0 C0 2.62113708 -0.31292445 4.50935112 -1 7 C-2.98 7.33 -4.96 7.66 -7 8 C-6.02133662 6.85373678 -5.04205413 5.70800212 -4.0625 4.5625 C-3.51722656 3.92441406 -2.97195312 3.28632813 -2.41015625 2.62890625 C-1.63204305 1.73008851 -0.84063472 0.84063472 0 0 Z " fill="#B04341" transform="translate(202,307)"/>
<path d="M0 0 C0.66 0.33 1.32 0.66 2 1 C1.34 3.97 0.68 6.94 0 10 C-0.66 9.67 -1.32 9.34 -2 9 C-1.125 1.125 -1.125 1.125 0 0 Z " fill="#A62E30" transform="translate(463,294)"/>
<path d="M0 0 C0 3.21518097 -0.1621112 4.41024759 -2 7 C-5.125 8.25 -5.125 8.25 -8 9 C-7.04270084 7.87411986 -6.08412105 6.7493285 -5.125 5.625 C-4.59132812 4.99851562 -4.05765625 4.37203125 -3.5078125 3.7265625 C-2.38567993 2.44163349 -1.20628025 1.20628025 0 0 Z " fill="#A94B4B" transform="translate(226,283)"/>
<path d="M0 0 C1.14926266 0.95421808 2.29430541 1.91352045 3.4375 2.875 C4.07558594 3.40867187 4.71367187 3.94234375 5.37109375 4.4921875 C7 6 7 6 8 8 C7.01 8 6.02 8 5 8 C5 7.34 5 6.68 5 6 C4.01 6 3.02 6 2 6 C1.34 5.34 0.68 4.68 0 4 C0 2.68 0 1.36 0 0 Z " fill="#F9E9E2" transform="translate(303,266)"/>
<path d="M0 0 C0.66 0.99 1.32 1.98 2 3 C1.01 4.32 0.02 5.64 -1 7 C-0.34 7.33 0.32 7.66 1 8 C0.01 8.495 0.01 8.495 -1 9 C-3.125 8.0625 -3.125 8.0625 -5 7 C-4.0409375 6.1028125 -4.0409375 6.1028125 -3.0625 5.1875 C-0.79689611 3.09189663 -0.79689611 3.09189663 0 0 Z " fill="#F8F7F2" transform="translate(186,250)"/>
<path d="M0 0 C0.33 0.66 0.66 1.32 1 2 C1.66 2.33 2.32 2.66 3 3 C1.824375 3.37125 1.824375 3.37125 0.625 3.75 C-2.32317108 5.15389099 -2.9024777 6.00675737 -4 9 C-4 5.28703828 -2.65223411 2.65223411 0 0 Z " fill="#A72D2C" transform="translate(310,199)"/>
<path d="M0 0 C0 2.62113708 -0.31292445 4.50935112 -1 7 C-2.98 7.33 -4.96 7.66 -7 8 C-6.02133662 6.85373678 -5.04205413 5.70800212 -4.0625 4.5625 C-3.51722656 3.92441406 -2.97195313 3.28632813 -2.41015625 2.62890625 C-1.63204305 1.73008851 -0.84063472 0.84063472 0 0 Z " fill="#B04341" transform="translate(330,179)"/>
<path d="M0 0 C1.14926266 0.95421808 2.29430541 1.91352045 3.4375 2.875 C4.07558594 3.40867188 4.71367187 3.94234375 5.37109375 4.4921875 C7 6 7 6 8 8 C7.01 8 6.02 8 5 8 C5 7.34 5 6.68 5 6 C4.01 6 3.02 6 2 6 C1.34 5.34 0.68 4.68 0 4 C0 2.68 0 1.36 0 0 Z " fill="#F9E9E2" transform="translate(175,138)"/>
<path d="M0 0 C0 0.66 0 1.32 0 2 C-0.78375 2.309375 -1.5675 2.61875 -2.375 2.9375 C-4.92330128 3.92875038 -4.92330128 3.92875038 -7 5 C-7 4.34 -7 3.68 -7 3 C-8.32 2.67 -9.64 2.34 -11 2 C-7.12315913 0.80712589 -4.08378077 0 0 0 Z " fill="#A83536" transform="translate(183,7)"/>
<path d="M0 0 C1.98 0 3.96 0 6 0 C6 0.99 6 1.98 6 3 C3.69 3.33 1.38 3.66 -1 4 C-0.67 2.68 -0.34 1.36 0 0 Z " fill="#A8282B" transform="translate(289,462)"/>
<path d="M0 0 C1.32 0 2.64 0 4 0 C4 0.66 4 1.32 4 2 C5.32 2.66 6.64 3.32 8 4 C7.01 4.66 6.02 5.32 5 6 C3.35 4.02 1.7 2.04 0 0 Z " fill="#F9EEE3" transform="translate(307,342)"/>
<path d="M0 0 C0.99 0 1.98 0 3 0 C1.95125002 2.62187494 1.35068687 3.79371361 -1.125 5.25 C-1.74375 5.4975 -2.3625 5.745 -3 6 C-3 4.68 -3 3.36 -3 2 C-2.01 2 -1.02 2 0 2 C0 1.34 0 0.68 0 0 Z " fill="#A32D2D" transform="translate(138,294)"/>
<path d="M0 0 C2.97 0.495 2.97 0.495 6 1 C6 2.32 6 3.64 6 5 C6.66 5.33 7.32 5.66 8 6 C5 6 5 6 3.61328125 4.6875 C2.40885417 3.125 1.20442708 1.5625 0 0 Z " fill="#A94140" transform="translate(331,293)"/>
<path d="M0 0 C0.99 0 1.98 0 3 0 C1.95125002 2.62187494 1.35068687 3.79371361 -1.125 5.25 C-1.74375 5.4975 -2.3625 5.745 -3 6 C-3 4.68 -3 3.36 -3 2 C-2.01 2 -1.02 2 0 2 C0 1.34 0 0.68 0 0 Z " fill="#A32D2D" transform="translate(266,166)"/>
<path d="M0 0 C2.97 0.495 2.97 0.495 6 1 C6 2.32 6 3.64 6 5 C6.66 5.33 7.32 5.66 8 6 C5 6 5 6 3.61328125 4.6875 C2.40885417 3.125 1.20442708 1.5625 0 0 Z " fill="#A94140" transform="translate(203,165)"/>
<path d="M0 0 C0.99 0 1.98 0 3 0 C1.95125002 2.62187494 1.35068687 3.79371361 -1.125 5.25 C-1.74375 5.4975 -2.3625 5.745 -3 6 C-3 4.68 -3 3.36 -3 2 C-2.01 2 -1.02 2 0 2 C0 1.34 0 0.68 0 0 Z " fill="#A22C2C" transform="translate(314,118)"/>
<path d="M0 0 C2.31 0 4.62 0 7 0 C7.33 1.98 7.66 3.96 8 6 C7.608125 5.525625 7.21625 5.05125 6.8125 4.5625 C4.59191626 2.64820367 2.86624291 2.38733012 0 2 C0 1.34 0 0.68 0 0 Z " fill="#AA2D34" transform="translate(319,114)"/>
<path d="M0 0 C2.97 1.65 5.94 3.3 9 5 C5 6 5 6 2.8125 5.3125 C1 4 1 4 0 0 Z " fill="#A33330" transform="translate(348,28)"/>
<path d="M0 0 C0.66 1.32 1.32 2.64 2 4 C0.68 4 -0.64 4 -2 4 C-2.33 5.32 -2.66 6.64 -3 8 C-3 7.34 -3 6.68 -3 6 C-3.66 5.67 -4.32 5.34 -5 5 C-3.35 3.35 -1.7 1.7 0 0 Z " fill="#A73639" transform="translate(334,344)"/>
<path d="M0 0 C0 3.16880694 -0.2058242 4.43689172 -2 7 C-4.625 7.75 -4.625 7.75 -7 8 C-6.02133662 6.85373678 -5.04205413 5.70800212 -4.0625 4.5625 C-3.51722656 3.92441406 -2.97195312 3.28632813 -2.41015625 2.62890625 C-1.63204305 1.73008851 -0.84063472 0.84063472 0 0 Z " fill="#B14646" transform="translate(170,339)"/>
<path d="M0 0 C0.66 0 1.32 0 2 0 C1.67 1.32 1.34 2.64 1 4 C0.01 4 -0.98 4 -2 4 C-2.66 5.32 -3.32 6.64 -4 8 C-4 4.06830895 -2.60580385 2.83572772 0 0 Z " fill="#F1C4C6" transform="translate(121,314)"/>
<path d="M0 0 C5.875 3.625 5.875 3.625 7 7 C6.01 7 5.02 7 4 7 C4 6.01 4 5.02 4 4 C2.68 4 1.36 4 0 4 C0 2.68 0 1.36 0 0 Z " fill="#F6D2D1" transform="translate(351,314)"/>
<path d="M0 0 C0.33 1.32 0.66 2.64 1 4 C0.34 4 -0.32 4 -1 4 C-1 4.66 -1 5.32 -1 6 C-2.65 6.33 -4.3 6.66 -6 7 C-4.02 4.69 -2.04 2.38 0 0 Z " fill="#A74341" transform="translate(209,300)"/>
<path d="M0 0 C3.73639216 1.24546405 4.18756513 2.63404953 6 6 C4.68 6 3.36 6 2 6 C2 5.34 2 4.68 2 4 C1.34 4 0.68 4 0 4 C0 2.68 0 1.36 0 0 Z " fill="#F4E0D6" transform="translate(337,300)"/>
<path d="M0 0 C1.64284201 2.95711562 2.6442194 5.62008426 3 9 C2.34 9.66 1.68 10.32 1 11 C0.63890458 9.35567294 0.28629924 7.7094792 -0.0625 6.0625 C-0.25972656 5.14597656 -0.45695313 4.22945313 -0.66015625 3.28515625 C-0.77230469 2.53105469 -0.88445313 1.77695312 -1 1 C-0.67 0.67 -0.34 0.34 0 0 Z " fill="#A6383A" transform="translate(10,294)"/>
<path d="M0 0 C0.66 0 1.32 0 2 0 C2 0.66 2 1.32 2 2 C2.99 2 3.98 2 5 2 C5.12375 2.639375 5.2475 3.27875 5.375 3.9375 C5.684375 4.9584375 5.684375 4.9584375 6 6 C6.66 6.33 7.32 6.66 8 7 C7.01 7 6.02 7 5 7 C0 1.53488372 0 1.53488372 0 0 Z " fill="#A34041" transform="translate(283,244)"/>
<path d="M0 0 C2.475 0.495 2.475 0.495 5 1 C5.33 2.32 5.66 3.64 6 5 C4.68 5 3.36 5 2 5 C2 4.01 2 3.02 2 2 C1.34 2 0.68 2 0 2 C0 1.34 0 0.68 0 0 Z " fill="#A44248" transform="translate(194,232)"/>
<path d="M0 0 C0 3.16880694 -0.2058242 4.43689172 -2 7 C-4.625 7.75 -4.625 7.75 -7 8 C-6.02133662 6.85373678 -5.04205413 5.70800212 -4.0625 4.5625 C-3.51722656 3.92441406 -2.97195313 3.28632813 -2.41015625 2.62890625 C-1.63204305 1.73008851 -0.84063472 0.84063472 0 0 Z " fill="#AA4A4A" transform="translate(290,219)"/>
<path d="M0 0 C0 3.16880694 -0.2058242 4.43689172 -2 7 C-4.625 7.75 -4.625 7.75 -7 8 C-6.02133662 6.85373678 -5.04205413 5.70800212 -4.0625 4.5625 C-3.51722656 3.92441406 -2.97195313 3.28632813 -2.41015625 2.62890625 C-1.63204305 1.73008851 -0.84063472 0.84063472 0 0 Z " fill="#AE4746" transform="translate(298,211)"/>
<path d="M0 0 C0.66 0 1.32 0 2 0 C2 0.66 2 1.32 2 2 C2.99 2 3.98 2 5 2 C5.12375 2.639375 5.2475 3.27875 5.375 3.9375 C5.684375 4.9584375 5.684375 4.9584375 6 6 C6.66 6.33 7.32 6.66 8 7 C7.01 7 6.02 7 5 7 C0 1.53488372 0 1.53488372 0 0 Z " fill="#A43F41" transform="translate(219,180)"/>
<path d="M0 0 C0.33 1.32 0.66 2.64 1 4 C0.34 4 -0.32 4 -1 4 C-1 4.66 -1 5.32 -1 6 C-2.65 6.33 -4.3 6.66 -6 7 C-4.02 4.69 -2.04 2.38 0 0 Z " fill="#A74341" transform="translate(337,172)"/>
<path d="M0 0 C3.73639216 1.24546405 4.18756513 2.63404953 6 6 C4.68 6 3.36 6 2 6 C2 5.34 2 4.68 2 4 C1.34 4 0.68 4 0 4 C0 2.68 0 1.36 0 0 Z " fill="#F4E0D6" transform="translate(209,172)"/>
<path d="M0 0 C1.15227823 0.76116551 2.2966386 1.53432693 3.4375 2.3125 C4.07558594 2.74175781 4.71367187 3.17101562 5.37109375 3.61328125 C7 5 7 5 8 8 C7.34 8 6.68 8 6 8 C6 7.34 6 6.68 6 6 C4.35 5.67 2.7 5.34 1 5 C0.67 3.35 0.34 1.7 0 0 Z " fill="#F0C6C8" transform="translate(326,120)"/>
<path d="M0 0 C-0.33 1.32 -0.66 2.64 -1 4 C-1.66 3.67 -2.32 3.34 -3 3 C-3.66 3.66 -4.32 4.32 -5 5 C-5.66 4.34 -6.32 3.68 -7 3 C-4.49955934 -0.00052879 -4.2621484 0 0 0 Z " fill="#F5E7E9" transform="translate(153,118)"/>
<path d="M0 0 C1 2 1 2 0.4375 4 C-1.57302108 6.79724672 -3.74418077 7.15065585 -7 8 C-6.02133662 6.85373678 -5.04205413 5.70800212 -4.0625 4.5625 C-3.51722656 3.92441406 -2.97195312 3.28632812 -2.41015625 2.62890625 C-1.63204305 1.73008851 -0.84063472 0.84063472 0 0 Z " fill="#AD5253" transform="translate(75,64)"/>
<path d="M0 0 C2.0625 0.4375 2.0625 0.4375 4 1 C1.03 3.475 1.03 3.475 -2 6 C-1.125 1.125 -1.125 1.125 0 0 Z " fill="#F7DCD9" transform="translate(334,340)"/>
<path d="M0 0 C2.0625 0.4375 2.0625 0.4375 4 1 C1.03 3.475 1.03 3.475 -2 6 C-1.125 1.125 -1.125 1.125 0 0 Z " fill="#F8EDE1" transform="translate(169,336)"/>
<path d="M0 0 C2.0625 0.4375 2.0625 0.4375 4 1 C1.03 3.475 1.03 3.475 -2 6 C-1.125 1.125 -1.125 1.125 0 0 Z " fill="#F9EBE2" transform="translate(179,326)"/>
<path d="M0 0 C0.66 0.33 1.32 0.66 2 1 C0.1875 3 0.1875 3 -2 5 C-2.99 5 -3.98 5 -5 5 C-4.1875 3.0625 -4.1875 3.0625 -3 1 C-2.01 0.67 -1.02 0.34 0 0 Z " fill="#AE282C" transform="translate(220,291)"/>
<path d="M0 0 C2.0625 0.4375 2.0625 0.4375 4 1 C1.03 3.475 1.03 3.475 -2 6 C-1.125 1.125 -1.125 1.125 0 0 Z " fill="#F9EBE2" transform="translate(307,198)"/>
<path d="M0 0 C0.99 0.33 1.98 0.66 3 1 C3.33 2.65 3.66 4.3 4 6 C3.01 6 2.02 6 1 6 C0.67 4.02 0.34 2.04 0 0 Z " fill="#A32725" transform="translate(119,156)"/>
<path d="M0 0 C1.98 1.65 3.96 3.3 6 5 C4.125 5.625 4.125 5.625 2 6 C1.34 5.34 0.68 4.68 0 4 C0 2.68 0 1.36 0 0 Z " fill="#F6DED9" transform="translate(340,134)"/>
<path d="M0 0 C0.66 0.33 1.32 0.66 2 1 C2 2.32 2 3.64 2 5 C1.34 5 0.68 5 0 5 C0 5.66 0 6.32 0 7 C-0.66 7 -1.32 7 -2 7 C-2.125 4.625 -2.125 4.625 -2 2 C-1.34 1.34 -0.68 0.68 0 0 Z " fill="#B5282B" transform="translate(98,45)"/>
<path d="M0 0 C3.82097239 0.53069061 6.06171403 1.49701566 9 4 C7.02 4 5.04 4 3 4 C3 3.34 3 2.68 3 2 C2.01 2 1.02 2 0 2 C0 1.34 0 0.68 0 0 Z " fill="#A63938" transform="translate(334,22)"/>
<path d="M0 0 C2.31 1.65 4.62 3.3 7 5 C5.68 5.33 4.36 5.66 3 6 C2.01 5.34 1.02 4.68 0 4 C0 2.68 0 1.36 0 0 Z " fill="#A42F2D" transform="translate(147,352)"/>
<path d="M0 0 C2.31 0.66 4.62 1.32 7 2 C7 3.32 7 4.64 7 6 C5.83054208 5.19152271 4.66449539 4.37810888 3.5 3.5625 C2.8503125 3.11003906 2.200625 2.65757812 1.53125 2.19140625 C1.0259375 1.79824219 0.520625 1.40507812 0 1 C0 0.67 0 0.34 0 0 Z " fill="#ECCBCA" transform="translate(141,346)"/>
<path d="M0 0 C0.66 0 1.32 0 2 0 C2 0.66 2 1.32 2 2 C2.99 2 3.98 2 5 2 C5.625 3.875 5.625 3.875 6 6 C5.34 6.66 4.68 7.32 4 8 C2.68 5.36 1.36 2.72 0 0 Z " fill="#AD3D3E" transform="translate(29,347)"/>
<path d="M0 0 C0.66 0.33 1.32 0.66 2 1 C2 1.99 2 2.98 2 4 C1.34 4 0.68 4 0 4 C0 4.66 0 5.32 0 6 C-1.32 5.67 -2.64 5.34 -4 5 C-2.68 3.35 -1.36 1.7 0 0 Z " fill="#AA3A3A" transform="translate(339,338)"/>
<path d="M0 0 C2.02054804 1.64169528 4.02043058 3.30911778 6 5 C6 5.33 6 5.66 6 6 C4.35 6 2.7 6 1 6 C0.67 4.02 0.34 2.04 0 0 Z " fill="#A43031" transform="translate(119,324)"/>
<path d="M0 0 C3.26954202 0.56371414 4.82575883 1.49962266 7 4 C6.34 4.66 5.68 5.32 5 6 C3.35 4.02 1.7 2.04 0 0 Z " fill="#F6D8DC" transform="translate(118,322)"/>
<path d="M0 0 C0.33 0.99 0.66 1.98 1 3 C0.34 3 -0.32 3 -1 3 C-1 4.32 -1 5.64 -1 7 C-1.66 7 -2.32 7 -3 7 C-3 5.02 -3 3.04 -3 1 C-2.01 0.67 -1.02 0.34 0 0 Z " fill="#A61716" transform="translate(461,303)"/>
<path d="M0 0 C2.0625 0.4375 2.0625 0.4375 4 1 C2.35 2.65 0.7 4.3 -1 6 C-1.042721 4.33388095 -1.04063832 2.66617115 -1 1 C-0.67 0.67 -0.34 0.34 0 0 Z " fill="#AC2930" transform="translate(131,300)"/>
<path d="M0 0 C1.98 0 3.96 0 6 0 C5.34 1.65 4.68 3.3 4 5 C2.64567325 3.68799596 1.31266518 2.35368596 0 1 C0 0.67 0 0.34 0 0 Z " fill="#AE2A2F" transform="translate(339,300)"/>
<path d="M0 0 C0.66 0.33 1.32 0.66 2 1 C1.67 2.32 1.34 3.64 1 5 C-0.98 5.33 -2.96 5.66 -5 6 C-3.35 4.02 -1.7 2.04 0 0 Z " fill="#E7BDB6" transform="translate(146,289)"/>
<path d="M0 0 C0.66 0.33 1.32 0.66 2 1 C1.67 2.32 1.34 3.64 1 5 C-0.98 5.33 -2.96 5.66 -5 6 C-3.35 4.02 -1.7 2.04 0 0 Z " fill="#E7BDB6" transform="translate(274,161)"/>
<path d="M0 0 C1.76462683 3.08809695 2 4.23312136 2 8 C1.01 7.67 0.02 7.34 -1 7 C-0.67 4.69 -0.34 2.38 0 0 Z " fill="#B0252B" transform="translate(25,132)"/>
<path d="M0 0 C1.65 0 3.3 0 5 0 C5.33 1.98 5.66 3.96 6 6 C5.34 6 4.68 6 4 6 C2.61061923 4.03852126 1.2739589 2.03833424 0 0 Z " fill="#A63A3A" transform="translate(343,136)"/>
<path d="M0 0 C0.33 0 0.66 0 1 0 C1 1.65 1 3.3 1 5 C0.01 5.33 -0.98 5.66 -2 6 C-2 6.99 -2 7.98 -2 9 C-2.66 9 -3.32 9 -4 9 C-2.80100302 5.9168649 -1.52299523 2.93720508 0 0 Z " fill="#AD3E3E" transform="translate(33,117)"/>
</svg>
